<?xml version="1.0" encoding="UTF-8" standalone="no"?>
<svg
   xmlns:dc="http://purl.org/dc/elements/1.1/"
   xmlns:cc="http://creativecommons.org/ns#"
   xmlns:rdf="http://www.w3.org/1999/02/22-rdf-syntax-ns#"
   xmlns:svg="http://www.w3.org/2000/svg"
   xmlns="http://www.w3.org/2000/svg"
   xmlns:sodipodi="http://sodipodi.sourceforge.net/DTD/sodipodi-0.dtd"
   xmlns:inkscape="http://www.inkscape.org/namespaces/inkscape"
   width="300"
   height="61"
   viewBox="0 0 2000 404"
   version="1.0"
   id="svg2"
   sodipodi:version="0.32"
   inkscape:version="0.46"
   sodipodi:docname="2000px-Aircel_Logo.svg"
   inkscape:output_extension="org.inkscape.output.svg.inkscape">
  <metadata
     id="metadata38">
    <rdf:RDF>
      <cc:Work
         rdf:about="">
        <dc:format>image/svg+xml</dc:format>
        <dc:type
           rdf:resource="http://purl.org/dc/dcmitype/StillImage" />
      </cc:Work>
    </rdf:RDF>
  </metadata>
  <defs
     id="defs36">
    <inkscape:perspective
       sodipodi:type="inkscape:persp3d"
       inkscape:vp_x="0 : 252.5 : 1"
       inkscape:vp_y="0 : 1000 : 0"
       inkscape:vp_z="2500 : 252.5 : 1"
       inkscape:persp3d-origin="1250 : 168.33333 : 1"
       id="perspective40" />
  </defs>
  <sodipodi:namedview
     inkscape:window-height="669"
     inkscape:window-width="640"
     inkscape:pageshadow="2"
     inkscape:pageopacity="0.0"
     guidetolerance="10.0"
     gridtolerance="10.0"
     objecttolerance="10.0"
     borderopacity="1.0"
     bordercolor="#666666"
     pagecolor="#ffffff"
     id="base"
     showgrid="false"
     inkscape:zoom="0.2176"
     inkscape:cx="1250"
     inkscape:cy="252.5"
     inkscape:window-x="115"
     inkscape:window-y="95"
     inkscape:current-layer="svg2" />
  <g
     id="#183883ff">
    <path
       d="M 0,0 L 1429.44,0 C 1429.82,22 1429.51,44.02 1429.54,66.03 C 1429.6,177.68 1429.4,289.34 1429.5,400.99 C 1429.55,401.74 1429.66,403.25 1429.72,404 L 0,404 L 0,0 M 810.19,104.18 C 800.44,106.48 790.76,109.73 782.35,115.3 C 770.07,123.32 761.03,135.41 754.32,148.28 C 745.08,165.83 740.45,185.25 735.06,204.21 C 730.37,223.15 725.63,242.36 725.58,261.99 C 725.53,269.69 726.76,278.03 732.1,283.97 C 738.35,291.04 747.56,294.37 756.44,296.73 C 773.61,300.9 791.37,301.91 808.99,302.1 C 829.62,302.14 850.36,301.89 870.79,298.74 C 882.04,296.76 893.63,294.57 903.48,288.46 C 912.15,283.31 918.74,275.36 924.04,266.92 C 932.92,252.52 937.84,236.16 942.1,219.92 C 922.5,219.97 902.88,219.73 883.28,220.04 C 880.73,229.3 878.87,239.15 873.1,247.08 C 869.43,252.29 863.14,254.78 857.07,255.86 C 846.14,257.7 835.03,257.84 823.98,257.99 C 812.64,258.09 801.18,257.57 790.16,254.7 C 787.96,254.02 784.53,253.1 785.02,250.11 C 784.86,237.56 788.64,225.46 791.63,213.41 C 797.58,192.76 802.93,171.56 813.93,152.88 C 816.9,147.9 822.74,145.76 828.15,144.64 C 839.61,142.39 851.35,142.04 863,141.64 C 873.53,141.6 884.12,141.91 894.54,143.61 C 896.86,144.11 899.99,144.44 900.94,147.05 C 901.93,156.82 897.25,165.82 895.26,175.14 C 914.87,175.15 934.48,175.13 954.09,175.19 C 957.32,162.96 961.38,150.74 961.63,137.98 C 961.71,129.7 960.31,120.83 954.81,114.3 C 950.32,108.57 943.55,105.29 936.73,103.24 C 920.99,98.29 904.32,98.09 887.99,97.7 C 861.95,97.49 835.66,98.3 810.19,104.18 M 241.57,99.39 C 193.53,166.52 145.17,233.42 97.18,300.57 C 117.12,300.51 137.07,300.65 157.01,300.63 C 158.69,300.5 160.89,300.78 161.91,299.08 C 170.26,287.61 178.21,275.84 186.73,264.5 C 217.23,264.79 247.74,264.44 278.24,264.54 C 279.55,276.07 280.95,287.58 282.06,299.13 C 281.65,301.03 283.99,300.29 284.98,300.5 C 304.1,300.51 323.23,300.72 342.35,300.5 C 334.31,233.47 326.36,166.43 318.47,99.37 C 292.84,99.31 267.2,99.27 241.57,99.39 M 434.36,99.33 C 414.03,166.4 393.65,233.46 373.35,300.54 C 392.9,300.49 412.46,300.7 432.02,300.47 C 452.28,233.39 472.88,166.41 493.01,99.29 C 473.46,99.3 453.91,99.25 434.36,99.33 M 473.03,300.58 C 492.57,300.55 512.1,300.54 531.63,300.57 C 538.37,279.48 544.21,258.11 551.31,237.14 C 571.54,237.4 591.76,237.13 611.99,237.37 C 618.65,237.8 626.61,238.09 631.1,243.82 C 633.8,249.32 631.52,255.55 629.97,261.06 C 626.03,274.25 621.82,287.36 618.06,300.59 C 637.59,300.45 657.12,300.53 676.65,300.55 C 681.01,285.62 685.91,270.86 690.07,255.88 C 691.5,250.02 693.59,244.16 693.18,238.03 C 692.87,229.32 688.47,220.88 681.42,215.73 C 687.77,212.59 694.54,209.79 699.52,204.55 C 710.72,193.23 716.14,177.74 720.79,162.86 C 724.07,151.38 726.95,139.05 723.75,127.22 C 721.96,119.83 717.43,112.94 710.66,109.27 C 695.97,100.86 678.55,99.82 662.02,99.41 C 619.36,99.26 576.7,99.18 534.04,99.32 C 513.81,166.44 493.28,233.47 473.03,300.58 M 1005.07,100.03 C 984.85,166.89 964.37,233.67 944.21,300.55 C 1002.9,300.53 1061.6,300.63 1120.29,300.49 C 1124.42,285.94 1129.14,271.58 1133.17,257 C 1094.13,256.96 1055.09,257.08 1016.06,256.94 C 1020.14,243.78 1024.06,230.58 1028.04,217.39 C 1064.94,217.26 1101.84,217.6 1138.72,217.3 C 1142.37,204.15 1146.46,191.12 1150.57,178.1 C 1113.79,177.29 1076.97,178.42 1040.18,177.44 C 1043.67,165.93 1047.18,154.42 1050.79,142.95 C 1089.53,143.01 1128.28,143.09 1167.02,143.01 C 1171.33,128.42 1176.22,113.97 1180.15,99.28 C 1122.76,99.38 1065.36,99.15 1007.98,99.39 C 1006.98,99.55 1006.01,99.76 1005.07,100.03 M 1206.52,99.43 C 1189,158.03 1170.95,216.48 1153.4,275.07 C 1151.03,283.61 1147.94,291.97 1146.02,300.61 C 1202.08,300.51 1258.14,300.77 1314.19,300.37 C 1319.87,285.61 1323.67,270.22 1328.38,255.14 C 1291.66,255.21 1254.93,254.93 1218.21,255.19 C 1228.35,220.77 1238.94,186.48 1249.33,152.12 C 1254.54,134.49 1260.33,117.01 1265.17,99.29 C 1245.62,99.37 1226.07,99.16 1206.52,99.43 z"
       id="path5"
       style="opacity:1;fill:#183883" />
    <path
       d="M 579.35,143.11 C 602.24,143 625.15,142.78 648.05,143.34 C 653.97,143.6 661.98,146.06 662.46,153.09 C 662.38,163.71 658.35,173.91 652.88,182.87 C 649.91,187.8 644.51,190.61 639.06,191.89 C 629.85,194.05 620.33,193.56 610.96,193.76 C 595.33,193.86 579.71,193.73 564.09,193.71 C 569.19,176.85 574.47,160.04 579.35,143.11 z"
       id="path7"
       style="opacity:1;fill:#183883" />
    <path
       d="M 265.65,153.26 C 265.79,153.31 266.08,153.42 266.22,153.47 C 269.09,177.22 271.75,201.01 274.19,224.8 C 254.36,224.83 234.54,224.85 214.71,224.78 C 215.91,222.41 217.55,220.31 219.11,218.17 C 234.61,196.53 249.69,174.57 265.65,153.26 z"
       id="path9"
       style="opacity:1;fill:#183883" />
  </g>
  <g
     id="#da251cff">
    <path
       d="M 1429.44,0 L 2000,0 L 2000,404 L 1429.72,404 C 1429.66,403.25 1429.55,401.74 1429.5,400.99 C 1429.4,289.34 1429.6,177.68 1429.54,66.03 C 1429.51,44.02 1429.82,22 1429.44,0 M 1964.24,79.53 C 1964.49,79.78 1964.49,79.78 1964.24,79.53 M 1962.02,80.5 C 1959.67,83.06 1956.84,85.06 1954.16,87.21 C 1907.05,124.31 1850.23,148.77 1791.04,158.11 C 1769.24,161.7 1747.11,162.57 1725.06,162.43 C 1729.52,163.14 1733.94,164.02 1738.41,164.73 C 1818.2,177.23 1903.36,147.49 1957.79,87.75 C 1959.65,85.82 1961.06,83.41 1963.43,81.99 C 1962.92,81.5 1962.45,81.01 1962.02,80.5 M 1752.06,211.98 C 1700.82,216.86 1648.87,213.2 1598.66,201.98 L 1600.47,203.49 C 1619.68,211.31 1639.6,217.4 1659.92,221.58 C 1754.66,241.59 1857.8,218.96 1934.81,160.06 C 1938.12,157.14 1942.3,155 1944.86,151.34 C 1885.74,184.65 1819.67,205.74 1752.06,211.98 M 1467.14,234.26 C 1481.87,242.18 1496.13,251.06 1511.5,257.75 C 1615.19,306.21 1739.07,308.78 1844.79,264.97 C 1863.25,257.38 1880.99,248.18 1898.41,238.45 C 1900.63,237.13 1903.22,236.27 1904.9,234.17 C 1899.54,235.13 1895.07,238.58 1889.8,239.92 C 1793.58,275.46 1687.97,285.2 1586.89,267.72 C 1545.97,260.66 1505.89,249.13 1467.14,234.26 z"
       id="path12"
       style="opacity:1;fill:#da251c" />
  </g>
  <g
     id="#fefefeff">
    <path
       d="M 1964.24,79.53 C 1964.49,79.78 1964.49,79.78 1964.24,79.53 z"
       id="path15"
       style="opacity:1;fill:#fefefe" />
    <path
       d="M 1962.02,80.5 C 1962.45,81.01 1962.92,81.5 1963.43,81.99 C 1961.06,83.41 1959.65,85.82 1957.79,87.75 C 1903.36,147.49 1818.2,177.23 1738.41,164.73 C 1733.94,164.02 1729.52,163.14 1725.06,162.43 C 1747.11,162.57 1769.24,161.7 1791.04,158.11 C 1850.23,148.77 1907.05,124.31 1954.16,87.21 C 1956.84,85.06 1959.67,83.06 1962.02,80.5 z"
       id="path17"
       style="opacity:1;fill:#fefefe" />
    <path
       d="M 810.19,104.18 C 835.66,98.3 861.95,97.49 887.99,97.7 C 904.32,98.09 920.99,98.29 936.73,103.24 C 943.55,105.29 950.32,108.57 954.81,114.3 C 960.31,120.83 961.71,129.7 961.63,137.98 C 961.38,150.74 957.32,162.96 954.09,175.19 C 934.48,175.13 914.87,175.15 895.26,175.14 C 897.25,165.82 901.93,156.82 900.94,147.05 C 899.99,144.44 896.86,144.11 894.54,143.61 C 884.12,141.91 873.53,141.6 863,141.64 C 851.35,142.04 839.61,142.39 828.15,144.64 C 822.74,145.76 816.9,147.9 813.93,152.88 C 802.93,171.56 797.58,192.76 791.63,213.41 C 788.64,225.46 784.86,237.56 785.02,250.11 C 784.53,253.1 787.96,254.02 790.16,254.7 C 801.18,257.57 812.64,258.09 823.98,257.99 C 835.03,257.84 846.14,257.7 857.07,255.86 C 863.14,254.78 869.43,252.29 873.1,247.08 C 878.87,239.15 880.73,229.3 883.28,220.04 C 902.88,219.73 922.5,219.97 942.1,219.92 C 937.84,236.16 932.92,252.52 924.04,266.92 C 918.74,275.36 912.15,283.31 903.48,288.46 C 893.63,294.57 882.04,296.76 870.79,298.74 C 850.36,301.89 829.62,302.14 808.99,302.1 C 791.37,301.91 773.61,300.9 756.44,296.73 C 747.56,294.37 738.35,291.04 732.1,283.97 C 726.76,278.03 725.53,269.69 725.58,261.99 C 725.63,242.36 730.37,223.15 735.06,204.21 C 740.45,185.25 745.08,165.83 754.32,148.28 C 761.03,135.41 770.07,123.32 782.35,115.3 C 790.76,109.73 800.44,106.48 810.19,104.18 z"
       id="path19"
       style="opacity:1;fill:#fefefe" />
    <path
       d="M 241.57,99.39 C 267.2,99.27 292.84,99.31 318.47,99.37 C 326.36,166.43 334.31,233.47 342.35,300.5 C 323.23,300.72 304.1,300.51 284.98,300.5 C 283.99,300.29 281.65,301.03 282.06,299.13 C 280.95,287.58 279.55,276.07 278.24,264.54 C 247.74,264.44 217.23,264.79 186.73,264.5 C 178.21,275.84 170.26,287.61 161.91,299.08 C 160.89,300.78 158.69,300.5 157.01,300.63 C 137.07,300.65 117.12,300.51 97.18,300.57 C 145.17,233.42 193.53,166.52 241.57,99.39 M 265.65,153.26 C 249.69,174.57 234.61,196.53 219.11,218.17 C 217.55,220.31 215.91,222.41 214.71,224.78 C 234.54,224.85 254.36,224.83 274.19,224.8 C 271.75,201.01 269.09,177.22 266.22,153.47 C 266.08,153.42 265.79,153.31 265.65,153.26 z"
       id="path21"
       style="opacity:1;fill:#fefefe" />
    <path
       d="M 434.36,99.33 C 453.91,99.25 473.46,99.3 493.01,99.29 C 472.88,166.41 452.28,233.39 432.02,300.47 C 412.46,300.7 392.9,300.49 373.35,300.54 C 393.65,233.46 414.03,166.4 434.36,99.33 z"
       id="path23"
       style="opacity:1;fill:#fefefe" />
    <path
       d="M 473.03,300.58 C 493.28,233.47 513.81,166.44 534.04,99.32 C 576.7,99.18 619.36,99.26 662.02,99.41 C 678.55,99.82 695.97,100.86 710.66,109.27 C 717.43,112.94 721.96,119.83 723.75,127.22 C 726.95,139.05 724.07,151.38 720.79,162.86 C 716.14,177.74 710.72,193.23 699.52,204.55 C 694.54,209.79 687.77,212.59 681.42,215.73 C 688.47,220.88 692.87,229.32 693.18,238.03 C 693.59,244.16 691.5,250.02 690.07,255.88 C 685.91,270.86 681.01,285.62 676.65,300.55 C 657.12,300.53 637.59,300.45 618.06,300.59 C 621.82,287.36 626.03,274.25 629.97,261.06 C 631.52,255.55 633.8,249.32 631.1,243.82 C 626.61,238.09 618.65,237.8 611.99,237.37 C 591.76,237.13 571.54,237.4 551.31,237.14 C 544.21,258.11 538.37,279.48 531.63,300.57 C 512.1,300.54 492.57,300.55 473.03,300.58 M 579.35,143.11 C 574.47,160.04 569.19,176.85 564.09,193.71 C 579.71,193.73 595.33,193.86 610.96,193.76 C 620.33,193.56 629.85,194.05 639.06,191.89 C 644.51,190.61 649.91,187.8 652.88,182.87 C 658.35,173.91 662.38,163.71 662.46,153.09 C 661.98,146.06 653.97,143.6 648.05,143.34 C 625.15,142.78 602.24,143 579.35,143.11 z"
       id="path25"
       style="opacity:1;fill:#fefefe" />
    <path
       d="M 1005.07,100.03 C 1006.01,99.76 1006.98,99.55 1007.98,99.39 C 1065.36,99.15 1122.76,99.38 1180.15,99.28 C 1176.22,113.97 1171.33,128.42 1167.02,143.01 C 1128.28,143.09 1089.53,143.01 1050.79,142.95 C 1047.18,154.42 1043.67,165.93 1040.18,177.44 C 1076.97,178.42 1113.79,177.29 1150.57,178.1 C 1146.46,191.12 1142.37,204.15 1138.72,217.3 C 1101.84,217.6 1064.94,217.26 1028.04,217.39 C 1024.06,230.58 1020.14,243.78 1016.06,256.94 C 1055.09,257.08 1094.13,256.96 1133.17,257 C 1129.14,271.58 1124.42,285.94 1120.29,300.49 C 1061.6,300.63 1002.9,300.53 944.21,300.55 C 964.37,233.67 984.85,166.89 1005.07,100.03 z"
       id="path27"
       style="opacity:1;fill:#fefefe" />
    <path
       d="M 1206.52,99.43 C 1226.07,99.16 1245.62,99.37 1265.17,99.29 C 1260.33,117.01 1254.54,134.49 1249.33,152.12 C 1238.94,186.48 1228.35,220.77 1218.21,255.19 C 1254.93,254.93 1291.66,255.21 1328.38,255.14 C 1323.67,270.22 1319.87,285.61 1314.19,300.37 C 1258.14,300.77 1202.08,300.51 1146.02,300.61 C 1147.94,291.97 1151.03,283.61 1153.4,275.07 C 1170.95,216.48 1189,158.03 1206.52,99.43 z"
       id="path29"
       style="opacity:1;fill:#fefefe" />
    <path
       d="M 1752.06,211.98 C 1819.67,205.74 1885.74,184.65 1944.86,151.34 C 1942.3,155 1938.12,157.14 1934.81,160.06 C 1857.8,218.96 1754.66,241.59 1659.92,221.58 C 1639.6,217.4 1619.68,211.31 1600.47,203.49 L 1598.66,201.98 C 1648.87,213.2 1700.82,216.86 1752.06,211.98 z"
       id="path31"
       style="opacity:1;fill:#fefefe" />
    <path
       d="M 1467.14,234.26 C 1505.89,249.13 1545.97,260.66 1586.89,267.72 C 1687.97,285.2 1793.58,275.46 1889.8,239.92 C 1895.07,238.58 1899.54,235.13 1904.9,234.17 C 1903.22,236.27 1900.63,237.13 1898.41,238.45 C 1880.99,248.18 1863.25,257.38 1844.79,264.97 C 1739.07,308.78 1615.19,306.21 1511.5,257.75 C 1496.13,251.06 1481.87,242.18 1467.14,234.26 z"
       id="path33"
       style="opacity:1;fill:#fefefe" />
  </g>
</svg>
