<?xml version="1.0" encoding="utf-8"?>
<!-- Generator: Adobe Illustrator 13.0.2, SVG Export Plug-In  -->
<!DOCTYPE svg PUBLIC "-//W3C//DTD SVG 1.1//EN" "http://www.w3.org/Graphics/SVG/1.1/DTD/svg11.dtd" [
	<!ENTITY ns_flows "http://ns.adobe.com/Flows/1.0/">
]>
<svg version="1.1"
	 xmlns="http://www.w3.org/2000/svg" xmlns:xlink="http://www.w3.org/1999/xlink" xmlns:a="http://ns.adobe.com/AdobeSVGViewerExtensions/3.0/"
	 x="0px" y="0px" width="111px" height="38px" viewBox="-0.723 -0.925 111 38" enable-background="new -0.723 -0.925 111 38"
	 xml:space="preserve">
<defs>
</defs>
<polygon fill="#00925A" points="19.717,24.59 19.717,12.549 25.006,12.549 30.508,0 16.127,0 0,36.719 24.406,36.719 26.821,31.252 
	16.797,31.252 "/>
<path d="M36.034,18.785h2.607l-1.285-3.227h-0.035L36.034,18.785z M34.291,13.449h6.238l4.219,9.822h-4.75l-0.777-2.125h-3.816
	l-0.732,2.125H30.17L34.291,13.449z"/>
<polygon points="45.851,13.449 55.951,13.449 55.951,15.814 50.377,15.814 50.377,17.402 55.778,17.402 55.778,19.771 
	50.377,19.771 50.377,23.271 45.851,23.271 "/>
<path d="M61.476,18.785h2.62l-1.276-3.227h-0.044L61.476,18.785z M59.758,13.449h6.234l4.194,9.822h-4.728l-0.785-2.125h-3.814
	l-0.729,2.125h-4.51L59.758,13.449z"/>
<path d="M75.84,17.744h1.194c0.918,0,1.826-0.088,1.826-1.086c0-0.885-0.869-1.012-1.772-1.012H75.84V17.744z M71.521,13.449h7.307
	c2.816,0,4.558,0.732,4.558,2.617c0,1.508-1.133,2.271-2.814,2.604v0.027c0.982,0.143,1.568,0.535,1.99,1.057
	c0.693,1.041,0.642,2.563,1.113,3.518h-4.713c-0.203-0.701-0.246-2.238-0.615-2.824c-0.278-0.455-0.735-0.512-1.289-0.512h-1.021
	v3.336h-4.515V13.449z"/>
<path d="M96.891,22.906c-1.547,0.381-3.012,0.537-4.872,0.537c-3.919,0-7.054-1.719-7.054-5.221c0-3.295,3.254-4.941,7.054-4.941
	c2.202,0,3.274,0.143,4.409,0.365v2.65c-0.647-0.316-1.854-0.568-3.113-0.568c-2.249,0-3.734,0.941-3.734,2.732
	c0,1.346,0.661,2.529,2.467,2.529c0.319,0,0.691,0,0.969-0.084v-1.314h-0.988v-1.873h4.863V22.906z"/>
<polygon points="99.522,13.449 109.75,13.449 109.75,15.814 103.947,15.814 103.947,17.207 109.49,17.207 109.49,19.568 
	103.947,19.568 103.947,20.906 109.86,20.906 109.86,23.271 99.522,23.271 "/>
<polygon points="25.145,13.449 25.145,20.379 30.158,20.379 30.158,23.271 20.62,23.271 20.62,13.449 "/>
</svg>
