<?xml version="1.0" encoding="UTF-8" standalone="no"?>
<svg
   xmlns:dc="http://purl.org/dc/elements/1.1/"
   xmlns:cc="http://creativecommons.org/ns#"
   xmlns:rdf="http://www.w3.org/1999/02/22-rdf-syntax-ns#"
   xmlns:svg="http://www.w3.org/2000/svg"
   xmlns="http://www.w3.org/2000/svg"
   xmlns:sodipodi="http://sodipodi.sourceforge.net/DTD/sodipodi-0.dtd"
   xmlns:inkscape="http://www.inkscape.org/namespaces/inkscape"
   sodipodi:docname="LIC Logo.svg"
   inkscape:version="1.0 (4035a4fb49, 2020-05-01)"
   id="svg701"
   version="1.1"
   viewBox="0 0 75.550003 37.423001"
   height="37.423mm"
   width="75.550003mm">
  <defs
     id="defs695" />
  <sodipodi:namedview
     inkscape:window-maximized="0"
     inkscape:window-y="0"
     inkscape:window-x="213"
     inkscape:window-height="1030"
     inkscape:window-width="1375"
     showgrid="false"
     inkscape:document-rotation="0"
     inkscape:current-layer="layer1"
     inkscape:document-units="mm"
     inkscape:cy="1.5041309"
     inkscape:cx="-0.2930447"
     inkscape:zoom="256"
     inkscape:pageshadow="2"
     inkscape:pageopacity="0.0"
     borderopacity="1.0"
     bordercolor="#666666"
     pagecolor="#ffffff"
     id="base" />
  <metadata
     id="metadata698">
    <rdf:RDF>
      <cc:Work
         rdf:about="">
        <dc:format>image/svg+xml</dc:format>
        <dc:type
           rdf:resource="http://purl.org/dc/dcmitype/StillImage" />
        <dc:title></dc:title>
      </cc:Work>
    </rdf:RDF>
  </metadata>
  <g
     id="layer1"
     inkscape:groupmode="layer"
     inkscape:label="Layer 1">
    <g
       id="g989">
      <g
         id="g3001"
         transform="matrix(0.63863252,0,0,-0.63863252,1.136612,0.00451251)">
        <path
           inkscape:connector-curvature="0"
           d="m 0,0 c -0.975,0 -1.773,-0.764 -1.773,-1.697 v -40.282 c 0,-0.934 0.798,-1.698 1.773,-1.698 H 44.129 V 0 H 0"
           style="fill:#1d4e9e;fill-opacity:1;fill-rule:evenodd;stroke:none"
           id="path3003" />
      </g>
      <g
         id="g3005"
         transform="matrix(0.63863252,0,0,-0.63863252,74.414575,0.00451251)">
        <path
           inkscape:connector-curvature="0"
           d="M 0,0 H -69.038 V -43.677 H 0 c 0.974,0 1.772,0.764 1.772,1.698 V -1.697 C 1.772,-0.764 0.974,0 0,0"
           style="fill:#fbc707;fill-opacity:1;fill-rule:evenodd;stroke:none"
           id="path3007" />
      </g>
      <g
         id="g3009"
         transform="matrix(0.63863252,0,0,-0.63863252,16.223657,22.764098)">
        <path
           inkscape:connector-curvature="0"
           d="m 0,0 -0.02,-0.032 0.004,-0.02 0.013,-0.008 h 0.01 l 0.015,0.005 0.007,0.012 0.003,0.012 L 0.024,-0.015 0,0"
           style="fill:#ffffff;fill-opacity:1;fill-rule:evenodd;stroke:none"
           id="path3011" />
      </g>
      <g
         id="g3013"
         transform="matrix(0.63863252,0,0,-0.63863252,35.328344,3.3413714)">
        <path
           inkscape:connector-curvature="0"
           d="M 0,0 H 5.696 V -28.361 H 17.65 v -4.865 H 0 V 0"
           style="fill:#1d4e9e;fill-opacity:1;fill-rule:evenodd;stroke:none"
           id="path3015" />
      </g>
      <path
         inkscape:connector-curvature="0"
         d="m 50.550156,24.56122 h 3.658087 V 3.3420146 h -3.658087 z"
         style="fill:#1d4e9e;fill-opacity:1;fill-rule:nonzero;stroke:none;stroke-width:0.510905"
         id="path3017" />
      <g
         id="g3019"
         transform="matrix(0.63863252,0,0,-0.63863252,66.905536,17.057921)">
        <path
           inkscape:connector-curvature="0"
           d="m 0,0 5.696,0.004 c 0,-3.866 -0.738,-6.911 -2.211,-9.132 -1.476,-2.221 -3.202,-3.332 -6.798,-3.332 -4.243,0 -6.27,1.054 -7.925,3.162 -1.64,2.121 -2.459,5.623 -2.459,10.503 v 7.038 c 0,5.241 0.856,8.873 2.571,10.894 1.728,2.035 3.545,3.053 7.289,3.053 3.519,0 5.521,-0.903 7.084,-2.708 1.565,-1.805 2.347,-4.6 2.347,-8.383 l -5.841,-0.004 c 0,2.046 -0.218,3.566 -0.652,4.56 -0.434,0.994 -1.258,1.492 -2.47,1.492 -3.04,0 -4.559,-2.307 -4.559,-6.92 V -0.541 c 0,-2.48 0.389,-4.246 1.168,-5.297 0.794,-1.054 1.939,-1.579 3.436,-1.579 1.138,0 1.976,0.554 2.517,1.661 C -0.27,-4.635 0,-2.717 0,0"
           style="fill:#1d4e9e;fill-opacity:1;fill-rule:evenodd;stroke:none"
           id="path3021" />
      </g>
      <g
         id="g3023"
         transform="matrix(0.63863252,0,0,-0.63863252,0.00430601,34.779976)">
        <path
           inkscape:connector-curvature="0"
           d="M 0,0 H 0.831 V -3.36 H 2.572 V -4.056 H 0 V 0"
           style="fill:#1d4e9e;fill-opacity:1;fill-rule:evenodd;stroke:none"
           id="path3025" />
      </g>
      <path
         inkscape:connector-curvature="0"
         d="M 2.125845,37.370911 H 2.656548 V 34.779978 H 2.125845 Z"
         style="fill:#1d4e9e;fill-opacity:1;fill-rule:nonzero;stroke:none;stroke-width:0.510905"
         id="path3027" />
      <g
         id="g3029"
         transform="matrix(0.63863252,0,0,-0.63863252,3.330944,34.779976)">
        <path
           inkscape:connector-curvature="0"
           d="M 0,0 H 2.598 V -0.696 H 0.84 V -1.768 H 1.855 V -2.464 H 0.84 V -4.056 H 0 V 0"
           style="fill:#1d4e9e;fill-opacity:1;fill-rule:evenodd;stroke:none"
           id="path3031" />
      </g>
      <g
         id="g3033"
         transform="matrix(0.63863252,0,0,-0.63863252,5.437155,34.779976)">
        <path
           inkscape:connector-curvature="0"
           d="M 0,0 H 2.835 V -0.696 H 0.831 V -1.601 H 2.056 V -2.204 H 0.831 V -3.36 H 2.835 V -4.056 H 0 V 0"
           style="fill:#1d4e9e;fill-opacity:1;fill-rule:evenodd;stroke:none"
           id="path3035" />
      </g>
      <path
         inkscape:connector-curvature="0"
         d="M 8.898543,37.370911 H 9.4292463 V 34.779978 H 8.898543 Z"
         style="fill:#1d4e9e;fill-opacity:1;fill-rule:nonzero;stroke:none;stroke-width:0.510905"
         id="path3037" />
      <g
         id="g3039"
         transform="matrix(0.63863252,0,0,-0.63863252,10.097894,34.779976)">
        <path
           inkscape:connector-curvature="0"
           d="M 0,0 H 0.889 L 2.607,-2.722 V 0 H 3.438 V -4.056 H 2.605 L 0.831,-1.228 V -4.056 H 0 V 0"
           style="fill:#1d4e9e;fill-opacity:1;fill-rule:evenodd;stroke:none"
           id="path3041" />
      </g>
      <g
         id="g3043"
         transform="matrix(0.63863252,0,0,-0.63863252,13.254026,36.642865)">
        <path
           inkscape:connector-curvature="0"
           d="m 0,0 c 0.14,-0.206 0.277,-0.35 0.413,-0.431 0.135,-0.082 0.294,-0.122 0.478,-0.122 0.221,0 0.393,0.052 0.516,0.157 0.124,0.106 0.186,0.229 0.186,0.372 0,0.125 -0.049,0.236 -0.146,0.331 -0.1,0.095 -0.321,0.186 -0.664,0.275 -0.47,0.118 -0.806,0.263 -1.008,0.433 -0.253,0.215 -0.379,0.481 -0.379,0.798 0,0.341 0.126,0.622 0.378,0.845 0.251,0.223 0.597,0.334 1.036,0.334 0.25,0 0.472,-0.04 0.668,-0.12 C 1.674,2.792 1.839,2.69 1.975,2.565 2.063,2.482 2.151,2.369 2.24,2.225 L 1.54,1.953 C 1.423,2.113 1.304,2.23 1.181,2.304 1.059,2.377 0.923,2.414 0.774,2.414 0.589,2.414 0.442,2.364 0.332,2.265 0.221,2.165 0.166,2.045 0.166,1.904 0.166,1.791 0.212,1.694 0.304,1.613 0.394,1.532 0.62,1.448 0.981,1.362 1.343,1.275 1.617,1.175 1.804,1.06 1.99,0.945 2.13,0.796 2.223,0.612 2.316,0.429 2.362,0.24 2.362,0.046 2.362,-0.159 2.303,-0.364 2.183,-0.571 2.063,-0.778 1.885,-0.936 1.65,-1.048 1.414,-1.159 1.144,-1.215 0.839,-1.215 c -0.29,0 -0.541,0.047 -0.753,0.14 -0.213,0.092 -0.393,0.218 -0.54,0.375 -0.095,0.101 -0.192,0.241 -0.289,0.422 L 0,0"
           style="fill:#1d4e9e;fill-opacity:1;fill-rule:evenodd;stroke:none"
           id="path3045" />
      </g>
      <g
         id="g3047"
         transform="matrix(0.63863252,0,0,-0.63863252,15.277216,34.779976)">
        <path
           inkscape:connector-curvature="0"
           d="m 0,0 h 0.831 v -2.471 c 0,-0.308 0.075,-0.54 0.224,-0.693 0.149,-0.154 0.352,-0.23 0.608,-0.23 0.164,0 0.31,0.031 0.437,0.093 0.127,0.062 0.229,0.162 0.305,0.301 0.076,0.139 0.115,0.316 0.115,0.529 V 0 H 3.36 V -2.59 C 3.36,-3.085 3.219,-3.465 2.937,-3.731 2.655,-3.998 2.243,-4.132 1.699,-4.132 1.386,-4.132 1.094,-4.084 0.823,-3.989 0.68,-3.937 0.56,-3.87 0.464,-3.788 0.332,-3.671 0.221,-3.522 0.133,-3.341 0.044,-3.16 0,-2.917 0,-2.611 V 0"
           style="fill:#1d4e9e;fill-opacity:1;fill-rule:evenodd;stroke:none"
           id="path3049" />
      </g>
      <g
         id="g3051"
         transform="matrix(0.63863252,0,0,-0.63863252,18.045038,34.779976)">
        <path
           inkscape:connector-curvature="0"
           d="M 0,0 H 1.141 C 1.755,0 2.179,-0.044 2.413,-0.133 2.649,-0.221 2.831,-0.368 2.962,-0.571 3.093,-0.775 3.158,-1.008 3.158,-1.272 3.158,-1.515 3.099,-1.715 2.982,-1.874 2.864,-2.032 2.66,-2.168 2.369,-2.281 L 3.131,-4.056 H 2.306 L 1.599,-2.431 H 0.831 V -4.056 H 0 Z m 0.831,-0.704 v -1.098 h 0.668 c 0.244,0 0.452,0.067 0.624,0.2 0.113,0.089 0.169,0.212 0.169,0.371 0,0.151 -0.063,0.276 -0.188,0.376 -0.126,0.101 -0.327,0.151 -0.605,0.151 H 0.831"
           style="fill:#1d4e9e;fill-opacity:1;fill-rule:evenodd;stroke:none"
           id="path3053" />
      </g>
      <g
         id="g3055"
         transform="matrix(0.63863252,0,0,-0.63863252,21.17753,34.779976)">
        <path
           inkscape:connector-curvature="0"
           d="M 0,0 H 0.898 L 2.26,-4.056 H 1.443 l -0.318,0.947 h -1.351 l -0.318,-0.947 h -0.818 z m 0.449,-1.098 -0.478,-1.425 h 0.957 l -0.479,1.425"
           style="fill:#1d4e9e;fill-opacity:1;fill-rule:evenodd;stroke:none"
           id="path3057" />
      </g>
      <g
         id="g3059"
         transform="matrix(0.63863252,0,0,-0.63863252,23.001475,34.779976)">
        <path
           inkscape:connector-curvature="0"
           d="M 0,0 H 0.889 L 2.607,-2.722 V 0 H 3.438 V -4.056 H 2.605 L 0.831,-1.228 V -4.056 H 0 V 0"
           style="fill:#1d4e9e;fill-opacity:1;fill-rule:evenodd;stroke:none"
           id="path3061" />
      </g>
      <g
         id="g3063"
         transform="matrix(0.63863252,0,0,-0.63863252,27.867845,36.626894)">
        <path
           inkscape:connector-curvature="0"
           d="m 0,0 c -0.059,-0.228 -0.134,-0.409 -0.225,-0.543 -0.145,-0.218 -0.334,-0.388 -0.566,-0.512 -0.232,-0.124 -0.5,-0.185 -0.805,-0.185 -0.325,0 -0.635,0.078 -0.931,0.233 -0.295,0.157 -0.519,0.39 -0.673,0.701 -0.153,0.31 -0.23,0.676 -0.23,1.098 0,0.439 0.078,0.827 0.235,1.164 0.156,0.337 0.383,0.59 0.681,0.758 0.297,0.169 0.611,0.253 0.94,0.253 0.242,0 0.479,-0.051 0.711,-0.153 0.232,-0.103 0.424,-0.247 0.576,-0.434 0.105,-0.13 0.189,-0.303 0.252,-0.518 l -0.77,-0.211 c -0.056,0.218 -0.154,0.383 -0.297,0.494 -0.142,0.112 -0.312,0.168 -0.511,0.168 -0.297,0 -0.529,-0.137 -0.694,-0.41 -0.165,-0.272 -0.247,-0.629 -0.247,-1.07 0,-0.278 0.037,-0.522 0.113,-0.731 0.076,-0.21 0.18,-0.365 0.313,-0.464 0.133,-0.099 0.277,-0.149 0.432,-0.149 0.233,0 0.441,0.08 0.624,0.24 0.129,0.111 0.23,0.271 0.302,0.48 L 0,0"
           style="fill:#1d4e9e;fill-opacity:1;fill-rule:evenodd;stroke:none"
           id="path3065" />
      </g>
      <g
         id="g3067"
         transform="matrix(0.63863252,0,0,-0.63863252,28.314258,34.779976)">
        <path
           inkscape:connector-curvature="0"
           d="M 0,0 H 2.835 V -0.696 H 0.831 V -1.601 H 2.056 V -2.204 H 0.831 V -3.36 H 2.835 V -4.056 H 0 V 0"
           style="fill:#1d4e9e;fill-opacity:1;fill-rule:evenodd;stroke:none"
           id="path3069" />
      </g>
      <g
         id="g3071"
         transform="matrix(0.63863252,0,0,-0.63863252,33.776472,36.626894)">
        <path
           inkscape:connector-curvature="0"
           d="m 0,0 c -0.059,-0.228 -0.134,-0.409 -0.224,-0.543 -0.146,-0.218 -0.335,-0.388 -0.567,-0.512 -0.232,-0.124 -0.5,-0.185 -0.805,-0.185 -0.325,0 -0.635,0.078 -0.931,0.233 -0.295,0.157 -0.52,0.39 -0.672,0.701 -0.154,0.31 -0.231,0.676 -0.231,1.098 0,0.439 0.078,0.827 0.235,1.164 0.156,0.337 0.383,0.59 0.681,0.758 0.297,0.169 0.611,0.253 0.94,0.253 0.242,0 0.479,-0.051 0.711,-0.153 0.232,-0.103 0.424,-0.247 0.576,-0.434 0.105,-0.13 0.189,-0.303 0.252,-0.518 l -0.77,-0.211 c -0.056,0.218 -0.154,0.383 -0.297,0.494 -0.142,0.112 -0.312,0.168 -0.511,0.168 -0.297,0 -0.528,-0.137 -0.693,-0.41 -0.166,-0.272 -0.249,-0.629 -0.249,-1.07 0,-0.278 0.038,-0.522 0.114,-0.731 0.076,-0.21 0.18,-0.365 0.313,-0.464 0.133,-0.099 0.277,-0.149 0.433,-0.149 0.232,0 0.44,0.08 0.623,0.24 0.129,0.111 0.23,0.271 0.302,0.48 L 0,0"
           style="fill:#1d4e9e;fill-opacity:1;fill-rule:evenodd;stroke:none"
           id="path3073" />
      </g>
      <g
         id="g3075"
         transform="matrix(0.63863252,0,0,-0.63863252,35.206371,34.732078)">
        <path
           inkscape:connector-curvature="0"
           d="M 0,0 C 0.398,0 0.718,-0.064 0.962,-0.19 1.28,-0.356 1.523,-0.594 1.691,-0.905 1.858,-1.215 1.942,-1.623 1.942,-2.128 1.942,-2.812 1.774,-3.33 1.436,-3.68 1.099,-4.031 0.654,-4.207 0.099,-4.207 c -0.56,0 -1.012,0.179 -1.357,0.536 -0.345,0.357 -0.518,0.879 -0.518,1.565 0,0.413 0.07,0.783 0.21,1.111 0.075,0.182 0.191,0.351 0.346,0.508 0.156,0.157 0.337,0.277 0.544,0.361 C -0.468,-0.042 -0.243,0 0,0 Z m 0.085,-0.696 c -0.286,0 -0.521,-0.109 -0.707,-0.328 -0.186,-0.218 -0.279,-0.58 -0.279,-1.085 0,-0.495 0.094,-0.852 0.283,-1.069 0.189,-0.216 0.43,-0.325 0.725,-0.325 0.28,0 0.513,0.108 0.699,0.324 0.186,0.216 0.279,0.571 0.279,1.062 0,0.551 -0.114,0.938 -0.34,1.162 -0.175,0.173 -0.395,0.259 -0.66,0.259"
           style="fill:#1d4e9e;fill-opacity:1;fill-rule:evenodd;stroke:none"
           id="path3077" />
      </g>
      <g
         id="g3079"
         transform="matrix(0.63863252,0,0,-0.63863252,36.938344,34.779976)">
        <path
           inkscape:connector-curvature="0"
           d="M 0,0 H 1.141 C 1.754,0 2.178,-0.044 2.414,-0.133 2.648,-0.221 2.831,-0.368 2.962,-0.571 3.093,-0.775 3.158,-1.008 3.158,-1.272 3.158,-1.515 3.099,-1.715 2.982,-1.874 2.864,-2.032 2.66,-2.168 2.369,-2.281 L 3.131,-4.056 H 2.306 L 1.599,-2.431 H 0.831 V -4.056 H 0 Z m 0.831,-0.704 v -1.098 h 0.668 c 0.244,0 0.452,0.067 0.624,0.2 0.113,0.089 0.169,0.212 0.169,0.371 0,0.151 -0.063,0.276 -0.189,0.376 -0.125,0.101 -0.327,0.151 -0.604,0.151 H 0.831"
           style="fill:#1d4e9e;fill-opacity:1;fill-rule:evenodd;stroke:none"
           id="path3081" />
      </g>
      <g
         id="g3083"
         transform="matrix(0.63863252,0,0,-0.63863252,39.450084,34.779976)">
        <path
           inkscape:connector-curvature="0"
           d="M 0,0 H 1.339 C 1.816,0 2.172,-0.037 2.407,-0.111 2.642,-0.185 2.832,-0.315 2.977,-0.499 3.121,-0.684 3.193,-0.91 3.193,-1.176 3.193,-1.383 3.152,-1.574 3.069,-1.748 3.004,-1.881 2.906,-1.999 2.775,-2.101 2.642,-2.203 2.51,-2.28 2.378,-2.331 2.153,-2.42 1.887,-2.464 1.581,-2.464 H 0.84 V -4.056 H 0 Z m 0.84,-0.696 v -1.106 h 0.682 c 0.254,0 0.467,0.068 0.636,0.203 0.113,0.089 0.169,0.216 0.169,0.384 0,0.154 -0.06,0.279 -0.18,0.376 -0.12,0.095 -0.321,0.143 -0.604,0.143 H 0.84"
           style="fill:#1d4e9e;fill-opacity:1;fill-rule:evenodd;stroke:none"
           id="path3085" />
      </g>
      <g
         id="g3087"
         transform="matrix(0.63863252,0,0,-0.63863252,42.961925,34.732078)">
        <path
           inkscape:connector-curvature="0"
           d="M 0,0 C 0.397,0 0.718,-0.064 0.961,-0.19 1.279,-0.356 1.523,-0.594 1.69,-0.905 1.858,-1.215 1.941,-1.623 1.941,-2.128 1.941,-2.812 1.773,-3.33 1.436,-3.68 1.099,-4.031 0.653,-4.207 0.099,-4.207 c -0.56,0 -1.012,0.179 -1.358,0.536 -0.345,0.357 -0.518,0.879 -0.518,1.565 0,0.413 0.07,0.783 0.21,1.111 0.076,0.182 0.191,0.351 0.347,0.508 0.156,0.157 0.337,0.277 0.544,0.361 C -0.469,-0.042 -0.244,0 0,0 Z m 0.084,-0.696 c -0.285,0 -0.521,-0.109 -0.707,-0.328 -0.186,-0.218 -0.279,-0.58 -0.279,-1.085 0,-0.495 0.095,-0.852 0.284,-1.069 0.188,-0.216 0.43,-0.325 0.724,-0.325 0.28,0 0.513,0.108 0.699,0.324 0.186,0.216 0.279,0.571 0.279,1.062 0,0.551 -0.113,0.938 -0.339,1.162 -0.175,0.173 -0.396,0.259 -0.661,0.259"
           style="fill:#1d4e9e;fill-opacity:1;fill-rule:evenodd;stroke:none"
           id="path3089" />
      </g>
      <g
         id="g3091"
         transform="matrix(0.63863252,0,0,-0.63863252,44.693895,34.779976)">
        <path
           inkscape:connector-curvature="0"
           d="m 0,0 h 1.141 c 0.613,0 1.038,-0.044 1.273,-0.133 0.234,-0.088 0.417,-0.235 0.548,-0.438 0.131,-0.204 0.197,-0.437 0.197,-0.701 0,-0.243 -0.06,-0.443 -0.177,-0.602 C 2.864,-2.032 2.66,-2.168 2.369,-2.281 L 3.131,-4.056 H 2.306 L 1.599,-2.431 H 0.831 V -4.056 H 0 Z M 0.831,-0.704 V -1.802 H 1.5 c 0.243,0 0.451,0.067 0.623,0.2 0.113,0.089 0.169,0.212 0.169,0.371 0,0.151 -0.063,0.276 -0.188,0.376 C 1.978,-0.754 1.777,-0.704 1.5,-0.704 H 0.831"
           style="fill:#1d4e9e;fill-opacity:1;fill-rule:evenodd;stroke:none"
           id="path3093" />
      </g>
      <g
         id="g3095"
         transform="matrix(0.63863252,0,0,-0.63863252,47.826387,34.779976)">
        <path
           inkscape:connector-curvature="0"
           d="M 0,0 H 0.898 L 2.26,-4.056 H 1.443 l -0.319,0.947 h -1.35 l -0.318,-0.947 h -0.818 z m 0.449,-1.098 -0.478,-1.425 h 0.957 l -0.479,1.425"
           style="fill:#1d4e9e;fill-opacity:1;fill-rule:evenodd;stroke:none"
           id="path3097" />
      </g>
      <g
         id="g3099"
         transform="matrix(0.63863252,0,0,-0.63863252,49.150275,34.779976)">
        <path
           inkscape:connector-curvature="0"
           d="m 0,0 h 3.211 v -0.696 h -1.19 v -3.36 H 1.19 v 3.36 H 0 V 0"
           style="fill:#1d4e9e;fill-opacity:1;fill-rule:evenodd;stroke:none"
           id="path3101" />
      </g>
      <path
         inkscape:connector-curvature="0"
         d="m 51.67862,37.370911 h 0.530704 V 34.779978 H 51.67862 Z"
         style="fill:#1d4e9e;fill-opacity:1;fill-rule:nonzero;stroke:none;stroke-width:0.510905"
         id="path3103" />
      <g
         id="g3105"
         transform="matrix(0.63863252,0,0,-0.63863252,53.866571,34.732078)">
        <path
           inkscape:connector-curvature="0"
           d="M 0,0 C 0.398,0 0.718,-0.064 0.961,-0.19 1.28,-0.356 1.523,-0.594 1.691,-0.905 1.858,-1.215 1.942,-1.623 1.942,-2.128 1.942,-2.812 1.773,-3.33 1.436,-3.68 1.099,-4.031 0.654,-4.207 0.1,-4.207 c -0.56,0 -1.013,0.179 -1.358,0.536 -0.345,0.357 -0.518,0.879 -0.518,1.565 0,0.413 0.07,0.783 0.21,1.111 0.075,0.182 0.191,0.351 0.346,0.508 0.156,0.157 0.337,0.277 0.544,0.361 C -0.468,-0.042 -0.244,0 0,0 Z m 0.085,-0.696 c -0.286,0 -0.522,-0.109 -0.707,-0.328 -0.186,-0.218 -0.28,-0.58 -0.28,-1.085 0,-0.495 0.095,-0.852 0.283,-1.069 0.189,-0.216 0.431,-0.325 0.726,-0.325 0.28,0 0.513,0.108 0.699,0.324 0.185,0.216 0.279,0.571 0.279,1.062 0,0.551 -0.114,0.938 -0.34,1.162 -0.175,0.173 -0.395,0.259 -0.66,0.259"
           style="fill:#1d4e9e;fill-opacity:1;fill-rule:evenodd;stroke:none"
           id="path3107" />
      </g>
      <g
         id="g3109"
         transform="matrix(0.63863252,0,0,-0.63863252,55.587691,34.779976)">
        <path
           inkscape:connector-curvature="0"
           d="M 0,0 H 0.889 L 2.607,-2.722 V 0 H 3.438 V -4.056 H 2.605 L 0.831,-1.228 V -4.056 H 0 V 0"
           style="fill:#1d4e9e;fill-opacity:1;fill-rule:evenodd;stroke:none"
           id="path3111" />
      </g>
      <g
         id="g3113"
         transform="matrix(0.63863252,0,0,-0.63863252,60.526869,34.732078)">
        <path
           inkscape:connector-curvature="0"
           d="m 0,0 c 0.398,0 0.718,-0.064 0.961,-0.19 0.319,-0.166 0.562,-0.404 0.73,-0.715 0.167,-0.31 0.251,-0.718 0.251,-1.223 0,-0.684 -0.169,-1.202 -0.506,-1.552 -0.337,-0.351 -0.782,-0.527 -1.337,-0.527 -0.559,0 -1.012,0.179 -1.357,0.536 -0.346,0.357 -0.518,0.879 -0.518,1.565 0,0.413 0.07,0.783 0.21,1.111 0.075,0.182 0.191,0.351 0.346,0.508 0.156,0.157 0.337,0.277 0.544,0.361 C -0.468,-0.042 -0.243,0 0,0 Z m 0.084,-0.696 c -0.285,0 -0.52,-0.109 -0.706,-0.328 -0.186,-0.218 -0.28,-0.58 -0.28,-1.085 0,-0.495 0.095,-0.852 0.284,-1.069 0.188,-0.216 0.43,-0.325 0.724,-0.325 0.281,0 0.514,0.108 0.7,0.324 0.185,0.216 0.279,0.571 0.279,1.062 0,0.551 -0.114,0.938 -0.34,1.162 -0.175,0.173 -0.395,0.259 -0.661,0.259"
           style="fill:#1d4e9e;fill-opacity:1;fill-rule:evenodd;stroke:none"
           id="path3115" />
      </g>
      <g
         id="g3117"
         transform="matrix(0.63863252,0,0,-0.63863252,62.253098,34.779976)">
        <path
           inkscape:connector-curvature="0"
           d="M 0,0 H 2.599 V -0.696 H 0.84 V -1.768 H 1.855 V -2.464 H 0.84 V -4.056 H 0 V 0"
           style="fill:#1d4e9e;fill-opacity:1;fill-rule:evenodd;stroke:none"
           id="path3119" />
      </g>
      <path
         inkscape:connector-curvature="0"
         d="m 65.528004,37.370911 h 0.530704 v -2.590933 h -0.530704 z"
         style="fill:#1d4e9e;fill-opacity:1;fill-rule:nonzero;stroke:none;stroke-width:0.510905"
         id="path3121" />
      <g
         id="g3123"
         transform="matrix(0.63863252,0,0,-0.63863252,66.726718,34.779976)">
        <path
           inkscape:connector-curvature="0"
           d="M 0,0 H 0.889 L 2.607,-2.722 V 0 H 3.439 V -4.056 H 2.605 L 0.831,-1.228 V -4.056 H 0 V 0"
           style="fill:#1d4e9e;fill-opacity:1;fill-rule:evenodd;stroke:none"
           id="path3125" />
      </g>
      <g
         id="g3127"
         transform="matrix(0.63863252,0,0,-0.63863252,69.553944,34.779976)">
        <path
           inkscape:connector-curvature="0"
           d="M 0,0 H 1.535 C 1.9,0 2.226,-0.085 2.513,-0.256 2.801,-0.426 3.02,-0.668 3.169,-0.979 3.32,-1.291 3.395,-1.629 3.395,-1.993 3.395,-2.356 3.33,-2.682 3.2,-2.973 3.07,-3.264 2.904,-3.493 2.701,-3.659 2.555,-3.777 2.367,-3.873 2.135,-3.946 1.903,-4.019 1.658,-4.056 1.4,-4.056 H 0 Z m 0.84,-0.687 v -2.657 h 0.575 c 0.205,0 0.387,0.053 0.547,0.157 0.16,0.105 0.282,0.244 0.369,0.415 0.126,0.243 0.188,0.509 0.188,0.796 0,0.392 -0.119,0.704 -0.357,0.938 -0.237,0.234 -0.543,0.351 -0.915,0.351 H 0.84"
           style="fill:#1d4e9e;fill-opacity:1;fill-rule:evenodd;stroke:none"
           id="path3129" />
      </g>
      <path
         inkscape:connector-curvature="0"
         d="m 72.267495,37.370911 h 0.530704 v -2.590933 h -0.530704 z"
         style="fill:#1d4e9e;fill-opacity:1;fill-rule:nonzero;stroke:none;stroke-width:0.510905"
         id="path3131" />
      <g
         id="g3133"
         transform="matrix(0.63863252,0,0,-0.63863252,74.087595,34.779976)">
        <path
           inkscape:connector-curvature="0"
           d="M 0,0 H 0.899 L 2.26,-4.056 H 1.443 L 1.125,-3.109 H -0.226 L -0.544,-4.056 H -1.362 Z M 0.45,-1.098 -0.029,-2.523 H 0.928 L 0.45,-1.098"
           style="fill:#1d4e9e;fill-opacity:1;fill-rule:evenodd;stroke:none"
           id="path3135" />
      </g>
      <g
         id="g3137"
         transform="matrix(0.63863252,0,0,-0.63863252,15.813013,13.134164)">
        <path
           inkscape:connector-curvature="0"
           d="M 0,0 C 1.335,0.735 2.27,2.111 2.27,2.91 2.27,3.486 1.335,3.966 0,4.19 V 3.966 C 1.068,3.774 1.803,3.422 1.803,3.134 c 0,-0.256 -0.635,-0.512 -1.536,-0.64 -0.034,0 -0.034,0 -0.034,0 -0.066,0 -0.167,0 -0.233,-0.032 z m -1.569,4.317 c 0.1,0.32 0.233,0.672 0.367,1.088 0.434,1.119 -0.167,2.43 -0.334,2.782 C -1.736,8.571 -2.204,9.69 -2.204,9.69 -2.437,7.963 -3.239,7.196 -3.506,6.364 -3.64,5.916 -3.439,5.405 -3.239,4.989 -3.105,4.765 -2.939,4.509 -2.804,4.285 -3.139,4.253 -3.473,4.19 -3.773,4.125 V 3.933 c 0.334,0.065 0.701,0.128 1.102,0.16 0.033,-0.063 0.1,-0.095 0.133,-0.16 C -2.337,3.645 -2.17,3.389 -2.17,3.006 -2.17,2.43 -3.172,2.43 -3.773,2.494 V 0.16 c 0.601,-0.385 1.302,-0.608 2.037,-0.608 0.601,0 1.202,0.16 1.736,0.448 v 2.462 c -0.635,0 -1.503,0.032 -1.736,0.576 -0.101,0.192 -0.033,0.575 0.1,1.087 0.601,0 1.168,-0.064 1.636,-0.159 L 0,4.19 C -0.468,4.253 -1.002,4.317 -1.569,4.317 Z M -3.773,4.125 C -4.975,3.902 -5.776,3.422 -5.776,2.91 c 0,-0.704 0.801,-1.983 2.003,-2.75 v 2.334 c -0.968,0.128 -1.603,0.384 -1.603,0.64 0,0.288 0.635,0.608 1.603,0.799 v 0.192"
           style="fill:#ffffff;fill-opacity:1;fill-rule:evenodd;stroke:none"
           id="path3139" />
      </g>
      <g
         id="g3141"
         transform="matrix(0.63863252,0,0,-0.63863252,8.989866,7.4356397)">
        <path
           inkscape:connector-curvature="0"
           d="M 0,0 C 0,0 0.2,0.767 0.2,0.927 0.2,1.119 0.066,1.695 0.701,1.343 1.335,0.991 1.168,0.512 1.035,0.224 0.901,-0.064 0.567,-1.056 0.4,-1.407 l -0.701,-1.856 c 0,0 -0.066,-0.16 -0.1,-0.224 -0.033,-0.031 -0.3,-0.991 -0.2,-2.047 l 0.133,-1.215 c 0,0 0.034,-0.095 0.134,0 0,0 0.134,0.064 0.033,0.672 0,0 0,1.247 0.034,1.503 0.033,0.256 0.167,1.056 0.233,1.183 0.067,0.161 0.1,0.192 0.234,0.544 0.134,0.384 0.568,1.471 0.568,1.471 0,0 0.601,1.183 0.667,1.503 0,0 0.268,0.64 0.234,1.504 0,0 -0.067,0.224 0.034,0.32 0.133,0.095 0.567,0 0.734,-0.128 C 2.604,1.695 2.905,1.407 2.871,0.991 2.838,0.607 2.638,-0.096 2.37,-0.768 c 0,0 -0.234,-0.512 -0.367,-0.671 -0.1,-0.128 -0.701,-1.472 -0.701,-1.535 -0.034,-0.064 -0.067,-0.161 -0.134,-0.225 0,0 -0.3,-0.863 -0.333,-1.151 -0.067,-0.32 -0.167,-0.64 -0.234,-1.311 -0.034,-0.64 0.2,-1.536 0.2,-1.536 0,0 0.034,-0.159 0.134,-0.159 0.1,0 0.1,0.351 0.1,0.383 0,0.064 -0.033,0.384 -0.067,0.544 -0.033,0.128 0,1.215 0,1.215 0,0 0.1,0.8 0.334,1.343 0.1,0.192 0.167,0.513 0.3,0.8 0.201,0.448 0.401,0.864 0.401,0.864 0,0 0.735,1.535 0.768,1.631 0.033,0.096 0.401,1.023 0.434,1.503 0,0.448 0.1,0.768 0.1,0.768 0,0 -0.067,0.351 0.401,0.16 C 4.14,1.663 4.44,1.279 4.474,0.927 c 0,0 0.067,-0.352 -0.067,-0.384 C 4.24,0.48 4.173,0.575 4.073,0.48 c 0,0 -0.1,-0.065 -0.1,-0.225 C 3.94,0.127 3.84,-0.288 3.806,-0.384 c 0,-0.128 0,-0.256 -0.1,-0.64 -0.134,-0.352 -0.534,-1.503 -0.568,-1.567 0,0 -0.267,-0.767 -0.3,-0.832 0,-0.064 -0.067,-0.16 -0.1,-0.224 0,-0.032 -0.368,-1.278 -0.401,-1.567 -0.034,-0.287 -0.134,-0.799 -0.1,-1.118 0,-0.321 0.1,-0.704 0.167,-0.992 0,0 0.033,-0.097 0.167,-0.064 0.1,0.032 -0.101,0.415 -0.034,0.991 0.067,0.576 0.167,1.376 0.234,1.567 0.033,0.224 0.434,1.312 0.434,1.376 0.033,0.063 0.401,1.151 0.501,1.343 0.067,0.192 0.401,1.215 0.434,1.407 0.033,0.192 0.033,0.704 0.568,0.768 0.567,-0.16 0.534,-1.12 0.467,-1.471 0,0 -0.1,-0.992 -0.467,-1.76 -0.334,-0.735 -0.301,-0.735 -0.301,-0.767 0,-0.064 0.1,-0.8 0.067,-1.087 0,-0.289 0.033,-0.576 -0.134,-1.184 -0.2,-0.607 -0.067,-0.672 -0.033,-0.768 0.067,-0.127 0.401,-0.575 0.501,-0.831 0.067,-0.256 0.166,-0.768 0.2,-0.864 0.033,-0.064 0.434,-0.447 0.601,-0.735 0.134,-0.256 0.567,-0.928 0.601,-0.992 0.033,-0.096 1.402,-1.759 1.77,-2.399 0.367,-0.639 0.701,-1.215 0.667,-1.791 -0.033,-0.447 -0.233,-0.927 -0.501,-1.31 -0.133,-0.161 -0.3,-0.321 -0.5,-0.449 -0.1,-0.064 -0.334,-0.159 -0.401,-0.319 L 6.978,-17.815 H 1.736 l 1.135,1.92 c 0,0 0.367,0.223 -0.434,1.183 -0.801,0.927 -2.17,3.262 -2.17,3.262 0,0 -1.236,2.047 -1.469,2.463 -0.367,0.543 -0.301,3.294 -0.301,4.125 0,0 -0.133,0.991 0.434,2.303 C -0.501,-1.248 0,0 0,0"
           style="fill:#ffffff;fill-opacity:1;fill-rule:evenodd;stroke:none"
           id="path3143" />
      </g>
      <g
         id="g3145"
         transform="matrix(0.63863252,0,0,-0.63863252,20.376046,7.4356397)">
        <path
           inkscape:connector-curvature="0"
           d="m 0,0 c 0,0 -0.167,0.767 -0.201,0.927 0,0.192 0.134,0.768 -0.5,0.416 -0.601,-0.352 -0.434,-0.831 -0.334,-1.119 0.134,-0.288 0.467,-1.28 0.668,-1.631 l 0.701,-1.856 c 0,0 0.067,-0.16 0.067,-0.224 0.033,-0.031 0.3,-0.991 0.2,-2.047 L 0.467,-6.749 c 0,0 -0.033,-0.095 -0.133,0 0,0 -0.133,0.064 -0.033,0.672 0,0 0,1.247 -0.034,1.503 -0.034,0.256 -0.134,1.056 -0.234,1.183 -0.066,0.161 -0.1,0.192 -0.234,0.544 -0.1,0.384 -0.567,1.471 -0.567,1.471 0,0 -0.601,1.183 -0.668,1.503 0,0 -0.267,0.64 -0.234,1.504 0,0 0.101,0.224 -0.033,0.32 -0.133,0.095 -0.534,0 -0.701,-0.128 -0.167,-0.128 -0.501,-0.416 -0.468,-0.832 0.068,-0.384 0.234,-1.087 0.502,-1.759 0,0 0.233,-0.512 0.367,-0.671 0.1,-0.128 0.701,-1.472 0.734,-1.535 0,-0.064 0.067,-0.161 0.1,-0.225 0,0 0.301,-0.863 0.334,-1.151 0.067,-0.32 0.2,-0.64 0.234,-1.311 0.033,-0.64 -0.2,-1.536 -0.2,-1.536 0,0 -0.034,-0.159 -0.134,-0.159 -0.1,0 -0.1,0.351 -0.1,0.383 0,0.064 0.033,0.384 0.067,0.544 0.033,0.128 0,1.215 0,1.215 0,0 -0.101,0.8 -0.334,1.343 -0.067,0.192 -0.167,0.513 -0.301,0.8 -0.167,0.448 -0.4,0.864 -0.4,0.864 0,0 -0.701,1.535 -0.735,1.631 -0.033,0.096 -0.434,1.023 -0.468,1.503 0,0.448 -0.099,0.768 -0.099,0.768 0,0 0.099,0.351 -0.368,0.16 -0.468,-0.192 -0.768,-0.576 -0.801,-0.928 0,0 -0.067,-0.352 0.1,-0.384 0.133,-0.063 0.233,0.032 0.3,-0.063 0,0 0.101,-0.065 0.134,-0.225 0,-0.128 0.1,-0.543 0.134,-0.639 0.033,-0.128 0,-0.256 0.1,-0.64 0.133,-0.352 0.534,-1.503 0.567,-1.567 0,0 0.267,-0.767 0.301,-0.832 0.034,-0.064 0.067,-0.16 0.1,-0.224 0.034,-0.032 0.368,-1.278 0.401,-1.567 0.033,-0.287 0.133,-0.799 0.133,-1.118 -0.033,-0.321 -0.1,-0.704 -0.166,-0.992 0,0 -0.067,-0.097 -0.168,-0.064 -0.133,0.032 0.067,0.415 0,0.991 -0.033,0.576 -0.166,1.376 -0.233,1.567 -0.033,0.224 -0.401,1.312 -0.435,1.376 0,0.063 -0.4,1.151 -0.5,1.343 -0.067,0.192 -0.368,1.215 -0.435,1.407 -0.032,0.192 -0.032,0.704 -0.567,0.768 -0.567,-0.16 -0.534,-1.12 -0.467,-1.471 0,0 0.1,-0.992 0.467,-1.76 0.368,-0.735 0.301,-0.735 0.301,-0.767 0,-0.064 -0.101,-0.8 -0.067,-1.087 0,-0.289 -0.034,-0.576 0.134,-1.184 0.199,-0.607 0.066,-0.672 0.033,-0.768 -0.033,-0.127 -0.401,-0.575 -0.501,-0.831 -0.067,-0.256 -0.133,-0.768 -0.2,-0.864 -0.033,-0.064 -0.434,-0.447 -0.601,-0.735 -0.134,-0.256 -0.568,-0.928 -0.602,-0.992 -0.033,-0.096 -1.402,-1.759 -1.769,-2.399 -0.367,-0.639 -0.668,-1.215 -0.634,-1.791 0,-0.447 0.2,-0.927 0.5,-1.31 0.134,-0.161 0.268,-0.321 0.468,-0.449 0.134,-0.064 0.334,-0.159 0.401,-0.319 l 0.267,-1.152 h 5.275 l -1.135,1.92 c 0,0 -0.401,0.223 0.401,1.183 0.801,0.927 2.17,3.262 2.17,3.262 0,0 1.269,2.047 1.502,2.463 0.334,0.543 0.301,3.294 0.268,4.125 0,0 0.133,0.991 -0.434,2.303 C 0.534,-1.248 0,0 0,0"
           style="fill:#ffffff;fill-opacity:1;fill-rule:evenodd;stroke:none"
           id="path3147" />
      </g>
      <g
         id="g3149"
         transform="matrix(0.63863252,0,0,-0.63863252,14.703708,25.491709)">
        <path
           inkscape:connector-curvature="0"
           d="m 0,0 c 0.501,0.032 0.969,0.032 0.969,0.032 3.438,0 6.744,1.503 9.348,4.222 2.237,2.334 3.639,5.309 3.639,7.739 v 12.409 c 0,2.208 -1.435,5.15 -3.706,7.484 -2.671,2.752 -6.043,4.254 -9.515,4.254 0,0 -0.368,0 -0.735,0 v -0.383 c 0.401,0 0.735,0 0.735,0 5.509,0 9.682,-3.934 11.619,-7.58 0.701,-1.375 0.467,-2.719 0.467,-3.775 V 11.993 c 0,-1.343 0.167,-2.878 -0.634,-4.349 C 11.619,6.556 10.918,5.469 10.017,4.51 7.479,1.887 4.274,0.448 0.969,0.448 0.969,0.448 0.501,0.415 0,0.415 Z m 0,36.14 c -0.434,0 -0.868,0 -0.868,0 -3.439,0 -6.844,-1.502 -9.515,-4.254 -2.271,-2.334 -3.707,-5.276 -3.707,-7.611 V 11.898 c 0,-2.335 1.403,-5.31 3.639,-7.644 2.605,-2.719 5.91,-4.222 9.349,-4.222 0,0 0.535,-0.032 1.036,-0.032 0,0 0.033,0 0.066,0 v 0.415 c -0.534,0 -1.102,0.033 -1.102,0.033 -3.305,0 -6.51,1.439 -9.048,4.062 -0.901,0.959 -1.669,2.015 -2.237,3.07 -0.568,1.183 -0.467,3.038 -0.467,4.413 v 12.409 c 0,1.312 -0.234,3.007 0.801,4.67 2.103,3.39 6.143,6.685 11.185,6.685 0,0 0.434,0 0.868,0 v 0.383"
           style="fill:#ffffff;fill-opacity:1;fill-rule:evenodd;stroke:none"
           id="path3151" />
      </g>
      <g
         id="g3153"
         transform="matrix(0.63863252,0,0,-0.63863252,13.573971,20.528253)">
        <path
           inkscape:connector-curvature="0"
           d="m 0,0 c 0,-0.128 -0.1,-0.223 -0.234,-0.223 -0.133,0 -0.234,0.095 -0.234,0.223 0,0.096 0.101,0.192 0.234,0.192 C -0.1,0.192 0,0.096 0,0"
           style="fill:#ffffff;fill-opacity:1;fill-rule:evenodd;stroke:none"
           id="path3155" />
      </g>
      <g
         id="g3157"
         transform="matrix(0.63863252,0,0,-0.63863252,13.723421,20.916539)">
        <path
           inkscape:connector-curvature="0"
           d="m 0,0 c 0,0 -0.568,0.032 -1.069,0.096 v -0.384 c 0.101,0 0.201,-0.032 0.268,-0.032 l -0.034,-0.703 h -0.234 v -0.576 l 0.167,-0.032 -0.033,-0.8 0.501,-0.063 0.2,2.11 h 0.2 z m -1.069,0.096 c -0.1,0 -0.2,0.032 -0.3,0.032 C -1.603,0.16 -1.87,0.224 -2.137,0.287 L -2.471,0.832 -3.039,0.96 -2.704,0.416 c -0.134,0.031 -0.201,0.031 -0.201,0.031 l -0.1,-0.351 c 0,0 0.067,-0.032 0.167,-0.032 l -0.067,-0.32 -0.467,0.096 c 0.167,0.128 0.267,0.288 0.267,0.48 0,0.32 -0.267,0.575 -0.601,0.575 V 0.447 c 0.1,0 0.133,-0.063 0.133,-0.127 0,-0.064 -0.033,-0.096 -0.066,-0.128 -0.034,0 -0.034,0 -0.067,0 v -0.704 l 0.701,-0.191 -0.301,-1.408 0.535,-0.096 0.467,2.144 c 0.167,-0.033 0.334,-0.097 0.501,-0.097 l -0.1,-0.767 c 0,0 -0.267,0.063 -0.334,-0.224 -0.033,-0.256 0.267,-0.512 0.401,-0.64 0.233,-0.256 0.4,0.16 0.4,0.16 v 0.064 l 0.367,-0.032 v 0.576 l -0.3,0.031 0.133,0.736 c 0.067,-0.032 0.101,-0.032 0.167,-0.032 z m -2.637,-2.079 v 0.96 c 0.067,0.031 0.133,0.031 0.133,0.031 l 0.234,-0.287 c -0.067,-0.096 -0.167,-0.16 -0.267,-0.224 -0.033,0 -0.033,-0.48 -0.033,-0.48 z m 0,2.878 c -0.367,0 -0.635,-0.255 -0.635,-0.575 0,-0.128 0.034,-0.256 0.134,-0.352 -0.134,-0.031 -0.234,-0.096 -0.267,-0.128 -0.134,-0.128 -0.468,-0.416 -0.367,-0.799 0.067,-0.416 0.5,-0.608 0.634,-0.672 0.033,0 0.033,0 0.067,0 0.033,0 0.033,-0.256 0.033,-0.256 l 0.401,-0.096 v 0.96 c -0.067,-0.033 -0.167,-0.065 -0.201,-0.065 -0.133,-0.031 -0.267,0.032 -0.367,0.129 -0.167,0.256 0.201,0.607 0.501,0.479 l 0.067,-0.032 v 0.704 c -0.067,0 -0.134,0.064 -0.134,0.128 0,0.064 0.067,0.127 0.134,0.127 v 0.448"
           style="fill:#ffffff;fill-opacity:1;fill-rule:evenodd;stroke:none"
           id="path3159" />
      </g>
      <g
         id="g3161"
         transform="matrix(0.63863252,0,0,-0.63863252,10.845096,20.630437)">
        <path
           inkscape:connector-curvature="0"
           d="m 0,0 0.133,0.352 c 0,0 -1.001,0.352 -2.003,0.832 L -2.037,1.887 -2.504,2.111 -2.37,1.408 c -0.602,0.319 -1.136,0.64 -1.47,0.831 V 1.28 c 0.134,0.159 0.167,0.32 0.167,0.415 0.133,-0.063 0.3,-0.16 0.434,-0.256 L -3.706,0.704 c 0,0 -0.034,-0.064 -0.134,-0.096 v -1.247 l 1.102,1.823 c 0.1,-0.064 0.2,-0.096 0.301,-0.16 L -3.506,-0.927 -3.039,-1.151 -1.97,0.8 c 0.134,-0.064 0.267,-0.128 0.401,-0.192 0.2,-0.64 -0.1,-0.831 -0.1,-0.831 -0.067,0.16 -0.334,0.191 -0.334,0.191 0,0 -0.401,-0.064 -0.301,-0.447 0.067,-0.385 0.434,-0.64 0.868,-0.256 0.367,0.32 0.434,0.895 0.434,1.119 0.1,-0.032 0.234,-0.096 0.334,-0.128 l -0.801,-2.047 0.501,-0.192 0.767,2.048 C -0.067,0.033 0,0 0,0 Z m -3.84,2.239 c -0.2,0.16 -0.334,0.224 -0.334,0.224 L -4.441,2.175 c 0,0 0.134,-0.064 0.301,-0.192 0,-0.064 0.066,-0.511 -0.501,-0.415 h -0.2 c 0,0 -0.368,-0.641 0.033,-1.184 0.267,-0.319 0.835,-0.256 0.835,-0.256 l -0.367,-0.575 0.467,-0.256 0.033,0.064 v 1.247 c -0.1,-0.032 -0.267,-0.032 -0.434,0.064 -0.267,0.224 -0.1,0.416 -0.1,0.416 0.267,0 0.434,0.063 0.534,0.192 v 0.959"
           style="fill:#ffffff;fill-opacity:1;fill-rule:evenodd;stroke:none"
           id="path3163" />
      </g>
      <g
         id="g3165"
         transform="matrix(0.63863252,0,0,-0.63863252,21.782955,20.34433)">
        <path
           inkscape:connector-curvature="0"
           d="m 0,0 0.367,0.32 -1.368,1.76 c 0.166,0.127 0.266,0.191 0.266,0.191 l -0.2,0.192 c 0,0 -0.167,-0.128 -0.467,-0.32 V 1.663 L -0.968,1.152 -1.335,0.864 -1.402,0.927 V 0.064 c 0.067,0 0.133,0 0.2,0 0.267,0 0.201,0.352 0.201,0.352 l 0.4,0.288 z M -1.402,2.143 C -2.07,1.695 -3.372,0.896 -4.875,0.288 v -0.416 l 0.368,-0.735 c 0.033,-0.192 -0.034,-0.48 -0.334,-0.544 -0.034,-0.032 -0.034,-0.032 -0.034,-0.032 v -0.512 c 0.267,0 0.535,0.064 0.735,0.352 l 0.3,-0.544 0.468,0.192 -0.968,2.079 c 0.4,0.16 0.768,0.352 1.102,0.512 l 0.066,-0.096 c 0,0 -0.167,-0.128 -0.367,-0.256 C -3.739,0.16 -3.84,0 -3.806,-0.255 c 0,-0.288 0.467,-0.48 0.467,-0.48 0,0 -0.066,-0.288 0.101,-0.64 0.3,-0.543 1.168,-0.319 1.168,-0.319 l -0.1,0.383 -0.2,-0.032 c -0.435,0.032 -0.435,0.352 -0.435,0.448 0.034,0.096 0.134,0.447 0.468,0.416 0.334,-0.032 0.2,-0.448 0.2,-0.448 l 0.334,-0.16 c 0.1,0.096 0.167,0.224 0.167,0.224 0.067,0.767 -0.334,0.832 -0.668,0.895 -0.334,0.096 -0.634,-0.192 -0.634,-0.192 0,0 -0.167,-0.095 -0.2,-0.031 -0.034,0.063 0.033,0.127 0.033,0.127 l 0.701,0.48 -0.334,0.544 c 0.167,0.064 0.301,0.16 0.401,0.224 0.134,-0.129 0.467,-0.64 0.467,-0.64 0,-0.064 -0.1,-0.096 -0.066,-0.256 0.066,-0.191 0.3,-0.224 0.534,-0.224 v 0.863 l -0.434,0.577 c 0.133,0.064 0.267,0.159 0.367,0.224 L -1.402,1.663 Z M -4.875,0.288 C -5.208,0.16 -5.542,0.032 -5.876,-0.096 c -1.97,-0.607 -4.14,-0.799 -5.209,-0.831 v -0.32 c 0.067,0 0.134,0 0.234,0 v -0.224 c -0.067,-0.032 -0.134,-0.032 -0.167,-0.032 -0.033,0 -0.067,0 -0.067,0 v -0.48 c 0,0 0.034,0 0.067,0 0.067,0 0.167,0 0.234,-0.031 l 0.033,-0.544 c -0.067,-0.032 -0.167,-0.064 -0.267,-0.064 -0.033,0 -0.067,0 -0.067,0 v -0.48 c 0,0 0.034,0 0.067,0 0.1,0 0.234,0.032 0.334,0.064 l 0.033,-0.416 0.535,0.032 -0.167,2.207 c 0.4,0.032 0.834,0.064 1.301,0.128 l 0.068,-0.192 c 0,0 -0.267,-0.032 -0.501,-0.064 -0.234,-0.064 -0.334,-0.16 -0.435,-0.416 -0.1,-0.255 0.268,-0.608 0.268,-0.608 0,0 -0.2,-0.255 -0.134,-0.639 0.067,-0.608 0.968,-0.704 0.968,-0.704 l 0.068,0.384 -0.234,0.064 c -0.401,0.192 -0.267,0.48 -0.234,0.543 0.066,0.097 0.3,0.385 0.601,0.257 0.3,-0.16 0,-0.48 0,-0.48 L -8.28,-3.23 c 0.134,0.064 0.234,0.16 0.234,0.16 0.367,0.703 0,0.896 -0.301,1.087 -0.267,0.16 -0.635,0 -0.635,0 0,0 -0.199,-0.031 -0.233,0.032 0,0.064 0.1,0.128 0.1,0.128 l 0.802,0.16 -0.101,0.64 c 0.101,0.032 0.234,0.032 0.334,0.064 l 0.601,-2.143 0.534,0.096 -0.567,2.143 c 0.167,0.031 0.3,0.064 0.467,0.096 0.067,-0.192 0.301,-0.832 0.301,-0.832 l -0.201,-0.128 c 0,0 -0.2,-0.224 0.1,-0.384 0.301,-0.191 0.501,-0.223 0.568,-0.256 0.034,0 0.234,0.065 0.234,0.353 l 0.334,0.127 -0.334,0.48 -0.2,-0.064 -0.268,0.832 c 0.201,0.063 0.401,0.096 0.568,0.16 0.1,-0.032 0.3,-0.129 0.3,-0.32 -0.033,-0.32 -0.3,-0.32 -0.3,-0.32 l -0.133,-0.16 c 0,0 0.333,-0.544 0.834,-0.639 0.134,0 0.234,-0.033 0.367,-0.033 v 0.512 c -0.3,-0.032 -0.4,0.224 -0.4,0.224 0,0 0.2,0.128 0.234,0.416 0,0.223 -0.134,0.479 -0.167,0.544 0.1,0.064 0.2,0.095 0.333,0.127 z m -6.21,-1.215 c -0.434,-0.032 -0.701,-0.032 -0.701,-0.032 l 0.034,-0.32 c 0,0 0.233,0 0.667,0.032 z m 0,-0.576 c -0.501,-0.032 -0.901,-0.384 -0.901,-0.799 0,-0.417 0.4,-0.768 0.901,-0.8 v 0.48 c -0.2,0.032 -0.367,0.16 -0.367,0.32 0,0.159 0.167,0.288 0.367,0.319 v 0.48"
           style="fill:#ffffff;fill-opacity:1;fill-rule:evenodd;stroke:none"
           id="path3167" />
      </g>
      <g
         id="g3169"
         transform="matrix(0.63863252,0,0,-0.63863252,21.932394,20.34433)">
        <path
           inkscape:connector-curvature="0"
           d="m 0,0 0.501,0.288 c 0,0 0.1,0.064 0.166,0 C 0.735,0.192 0.634,0.16 0.634,0.16 c 0,0 -0.367,-0.351 -0.467,-0.351 -0.101,-0.032 -0.134,0 -0.167,0 0,0 -0.067,0.127 0,0.191"
           style="fill:#ffffff;fill-opacity:1;fill-rule:evenodd;stroke:none"
           id="path3171" />
      </g>
      <g
         id="g3173"
         transform="matrix(0.63863252,0,0,-0.63863252,40.650075,30.331256)">
        <path
           inkscape:connector-curvature="0"
           d="m 0,0 h -13.184 c 0,0 -0.128,0 -0.305,0 -0.378,0 -0.984,0 -1.065,0 -0.069,0.081 -0.449,0.52 -0.449,0.52 l -0.401,0.411 c -0.293,0.294 -0.669,0.549 -1.118,0.759 -0.362,0.17 -0.723,0.257 -1.07,0.257 -0.799,0 -1.351,-0.283 -1.638,-0.84 -0.114,-0.212 -0.159,-0.383 -0.136,-0.521 L -19.337,0.362 -19.232,0.145 -19.125,0 h -6.346 v -0.648 c 0,0 6.681,0 6.948,0 0,-0.181 0,-0.702 0,-0.883 -0.254,0 -3.516,0 -3.516,0 l 0.337,-0.252 0.167,-0.127 0.359,-0.348 c 0.136,-0.129 0.261,-0.299 0.374,-0.505 0.071,-0.141 0.108,-0.281 0.108,-0.412 0,-0.158 -0.054,-0.285 -0.163,-0.387 -0.129,-0.122 -0.312,-0.181 -0.559,-0.181 -0.451,0 -0.891,0.201 -1.309,0.597 -0.36,0.338 -0.635,0.705 -0.818,1.086 l -0.246,0.509 c -0.002,0.004 -0.015,0.063 -0.015,0.063 v 0.291 l -0.887,-0.44 0.087,-0.317 0.267,-0.485 c 0.28,-0.503 0.626,-0.921 1.029,-1.245 0.57,-0.448 1.187,-0.675 1.834,-0.675 0.264,0 0.505,0.026 0.716,0.077 0.454,0.141 0.752,0.356 0.896,0.643 0.081,0.155 0.123,0.318 0.123,0.483 l -0.058,0.274 -0.145,0.34 c 0,0 -0.224,0.362 -0.245,0.396 0.416,0 1.46,0 1.664,0 0,-0.241 0,-2.812 0,-2.812 h 0.99 c 0,0 0,4.06 0,4.31 0.167,0 0.766,0 1.014,0 0.068,0 0.111,0 0.111,0 0.262,0 0.915,0 1.087,0 0,-0.25 0,-4.31 0,-4.31 h 0.99 c 0,0 0,4.06 0,4.31 0.134,0 0.55,0 0.842,0 0.174,0 0.305,0 0.305,0 0.979,0 4.01,0 4.229,0 0,-0.231 0,-2.076 0,-2.182 -0.129,-0.135 -0.317,-0.246 -0.573,-0.323 -0.134,-0.062 -0.26,-0.101 -0.393,-0.123 0.008,10e-4 -0.257,-0.036 -0.257,-0.036 l -0.129,10e-4 c -0.161,0 -0.334,0.021 -0.515,0.062 -0.411,0.136 -0.617,0.391 -0.617,0.775 0,0.099 0.019,0.193 0.057,0.281 0.129,0.219 0.292,0.356 0.491,0.403 0.131,0.04 0.285,0.06 0.47,0.06 l 0.356,-0.029 0.348,-0.078 0.109,-0.035 0.412,-0.165 -0.261,0.831 -0.07,0.005 -0.227,0.023 -0.209,0.034 -0.281,0.029 -0.259,10e-4 c -0.517,0.018 -0.981,-0.12 -1.373,-0.415 -0.402,-0.3 -0.605,-0.649 -0.605,-1.035 0,-0.221 0.062,-0.415 0.183,-0.577 0.115,-0.153 0.291,-0.302 0.524,-0.443 0.412,-0.249 0.915,-0.375 1.495,-0.375 l 0.433,0.028 0.448,0.104 0.327,0.145 c 0,0 0.062,0.031 0.116,0.058 0,-0.313 0,-1.334 0,-1.334 h 0.989 c 0,0 0,4.06 0,4.31 0.141,0 0.613,0 0.936,0 0.181,0 0.316,0 0.316,0 1.072,0 4.516,0 4.738,0 0,-0.186 0,-0.78 0,-0.966 -0.258,0 -3.608,0 -3.608,0 L -5.755,-1.622 -5.902,-1.653 C -6.174,-1.766 -6.227,-1.93 -6.227,-2.05 v -0.017 l 0.005,-0.016 c 0.023,-0.088 0.087,-0.188 0.194,-0.303 0.139,-0.163 0.294,-0.307 0.456,-0.422 l 0.505,-0.359 c 0.188,-0.104 0.299,-0.145 0.382,-0.145 l 0.196,0.023 0.135,0.077 c 0.008,0.005 0.09,0.146 0.09,0.146 l 0.017,0.145 c 0,0 0,0.475 10e-4,0.658 0.233,0 2.036,0 2.27,0 0,-0.24 0,-2.695 0,-2.695 h 0.99 c 0,0 0,4.06 0,4.31 0.213,0 1.125,0 1.125,0 V 0 Z m -16.408,0 h -1.552 l -0.056,0.053 -0.166,0.211 c 10e-4,-0.001 -0.135,0.244 -0.135,0.244 0.001,-0.003 -0.043,0.181 -0.043,0.181 l 0.01,0.144 c 0.043,0.115 0.112,0.227 0.198,0.315 0.124,0.121 0.321,0.183 0.581,0.183 0.285,0 0.641,-0.161 1.06,-0.478 0.637,-0.489 0.881,-0.733 0.976,-0.853 -0.191,0 -0.659,0 -0.873,0"
           style="fill:#1d4e9e;fill-opacity:1;fill-rule:evenodd;stroke:none"
           id="path3175" />
      </g>
      <g
         id="g3177"
         transform="matrix(0.63863252,0,0,-0.63863252,20.951454,30.331256)">
        <path
           inkscape:connector-curvature="0"
           d="m 0,0 v -0.648 c 0,0 -0.781,0 -0.986,0 0,-0.25 0,-4.31 0,-4.31 h -0.99 c 0,0 0,1.048 0,1.338 -0.455,-0.212 -0.959,-0.339 -1.524,-0.339 -0.733,0 -1.363,0.156 -1.874,0.464 -0.577,0.35 -0.869,0.802 -0.869,1.343 v 0.171 l 0.28,-0.069 0.105,-0.025 0.155,-0.024 -0.046,0.007 h 0.136 c 0.31,0 0.572,0.058 0.776,0.173 0.187,0.104 0.273,0.255 0.273,0.476 0,0.094 -0.053,0.265 -0.295,0.538 0,0 -0.239,0.204 -0.301,0.257 -0.082,0 -1.38,0 -1.844,0 0,0 -0.066,0 -0.165,0 -0.278,0 -0.823,0 -0.982,0 0,-0.25 0,-4.31 0,-4.31 H -9.14 c 0,0 0,4.06 0,4.31 -0.148,0 -0.649,0 -0.955,0 0,0 -0.099,0 -0.244,0 -0.318,0 -0.851,0 -1.002,0 0,-0.25 0,-4.31 0,-4.31 h -0.99 c 0,0 0,2.786 0,3.029 -0.248,0 -2.411,0 -2.411,0 -0.141,0 -0.269,-0.017 -0.401,-0.053 -0.163,-0.024 -0.278,-0.103 -0.357,-0.235 -0.01,-0.04 -0.044,-0.172 -0.044,-0.172 0,-0.384 0.179,-0.772 0.533,-1.152 0.381,-0.409 0.71,-0.67 0.979,-0.778 l 0.203,-0.044 0.33,-0.069 -0.724,-0.5 -0.01,-0.053 -0.071,0.027 c 0,0 -0.257,0.098 -0.254,0.097 l -0.389,0.251 -0.55,0.415 c 0,0 -0.253,0.238 -0.256,0.241 0,0 -0.205,0.228 -0.207,0.231 -0.381,0.448 -0.574,0.897 -0.574,1.333 0,0.305 0.121,0.568 0.356,0.779 0.106,0.1 0.25,0.179 0.441,0.241 0.182,0.059 0.37,0.089 0.556,0.089 0,0 2.598,0 2.85,0 0,0.16 0,0.473 0,0.633 -0.216,0 -3.554,0 -4.722,0 0,0 -0.183,0 -0.401,0 -0.262,0 -0.573,0 -0.688,0 0,-0.21 0,-1.052 0,-1.052 0,-0.47 -0.347,-0.793 -1.029,-0.96 -0.204,-0.052 -0.401,-0.075 -0.58,-0.068 0,0 -0.059,0 -0.115,0.001 0.284,-0.275 0.678,-0.655 0.678,-0.655 l 0.375,-0.312 0.705,-0.513 0.472,-0.314 -0.733,-0.448 -0.06,0.017 c -0.175,0.048 -0.442,0.217 -0.812,0.515 -0.465,0.365 -0.913,0.763 -1.333,1.184 l -0.427,0.423 -0.397,0.438 -0.288,0.33 -0.378,0.454 0.812,0.397 0.627,-0.717 c 0.108,-0.123 0.335,-0.185 0.674,-0.185 0.289,0 0.495,0.039 0.612,0.117 0.11,0.073 0.179,0.192 0.207,0.339 0,0 0,0.801 0,1.009 -0.191,0 -2.178,0 -3.187,0 -0.349,0 -0.582,0 -0.582,0 -0.301,0 -0.628,0 -0.738,0 0,-0.25 0,-4.31 0,-4.31 h -0.99 c 0,0 0,4.06 0,4.31 -0.142,0 -0.647,0 -0.994,0 0,0 -0.147,0 -0.343,0 -0.342,0 -0.836,0 -0.978,0 0,-0.25 0,-4.31 0,-4.31 h -0.99 c 0,0 0,2.044 0,2.28 h -1.876 c 0,-0.188 0,-0.716 0,-0.716 l -0.03,-0.123 -0.182,-0.108 -0.184,-0.023 c -0.116,0 -0.253,0.044 -0.416,0.133 -0.245,0.121 -0.454,0.249 -0.622,0.382 l -0.528,0.423 c -0.118,0.122 -0.184,0.218 -0.209,0.301 l -0.015,0.052 0.083,0.148 0.15,0.101 0.162,0.057 0.123,0.021 c 0,0 0.488,0 0.679,0 0,0.213 0,1.121 0,1.121 0,0.046 -0.013,0.106 -0.115,0.171 -0.095,0.059 -0.216,0.09 -0.36,0.09 0,0 -0.24,-0.032 -0.226,-0.028 0,0 -0.159,-0.054 -0.203,-0.069 -0.025,-0.024 -0.073,-0.068 -0.102,-0.096 -0.011,-0.037 -0.027,-0.091 -0.036,-0.123 0.004,-0.027 0.009,-0.056 0.012,-0.076 0.014,-0.026 0.06,-0.121 0.06,-0.121 0,0 0.011,-0.026 0.019,-0.044 0.016,-0.02 0.235,-0.284 0.235,-0.284 l -1.035,0.014 -0.115,0.135 -0.008,0.03 -0.007,0.035 -0.061,0.143 -0.02,0.14 c -0.023,0.217 0.037,0.524 0.45,0.748 0.3,0.162 0.656,0.244 1.059,0.244 0.665,0 1.112,-0.178 1.33,-0.533 0.075,-0.128 0.112,-0.263 0.112,-0.401 0,0 0,-0.884 0,-1.096 h 1.876 v 1.382 c -0.222,0 -1.337,0 -1.337,0 V 0 h 16.326 l -0.107,0.145 -0.104,0.217 -0.03,0.224 c -0.022,0.138 0.022,0.308 0.136,0.521 0.288,0.557 0.839,0.84 1.638,0.84 0.348,0 0.708,-0.087 1.07,-0.257 0.449,-0.21 0.825,-0.465 1.118,-0.759 L -8.823,0.52 c 0,0 0.38,-0.439 0.45,-0.52 0.091,0 0.861,0 1.204,0 0.099,0 0.165,0 0.165,0 z m -9.355,0 c -0.095,0.12 -0.338,0.364 -0.976,0.853 -0.418,0.317 -0.775,0.478 -1.06,0.478 -0.26,0 -0.456,-0.062 -0.581,-0.183 -0.086,-0.088 -0.154,-0.2 -0.197,-0.315 L -12.18,0.689 c 0,0 0.044,-0.184 0.044,-0.181 0,0 0.135,-0.245 0.134,-0.244 L -11.836,0.053 -11.78,0 h 1.685 c 0.237,0 0.583,0 0.74,0 z m 7.379,-0.648 c -0.214,0 -1.531,0 -1.961,0 0.032,-0.041 0.091,-0.115 0.091,-0.115 l 0.23,-0.37 0.077,-0.314 v -0.016 c 0,-0.46 -0.295,-0.811 -0.893,-1.049 l -0.353,-0.092 c 0,0 -0.14,-0.025 -0.272,-0.048 l 0.032,-0.06 0.041,-0.054 c 0.303,-0.4 0.756,-0.595 1.388,-0.595 0.35,0 0.674,0.066 0.966,0.196 0.17,0.074 0.306,0.149 0.396,0.218 0,0 0.196,0.183 0.258,0.241 0,0.1 0,1.828 0,2.058"
           style="fill:#1d4e9e;fill-opacity:1;fill-rule:evenodd;stroke:none"
           id="path3179" />
      </g>
      <g
         id="g3181"
         transform="matrix(0.63863252,0,0,-0.63863252,56.559688,30.331256)">
        <path
           inkscape:connector-curvature="0"
           d="m 0,0 h -9.891 c 0,0 -0.066,0 -0.165,0 -0.343,0 -1.113,0 -1.205,0 -0.069,0.081 -0.449,0.52 -0.449,0.52 l -0.401,0.411 c -0.293,0.294 -0.669,0.549 -1.118,0.759 -0.362,0.17 -0.722,0.257 -1.07,0.257 -0.8,0 -1.351,-0.283 -1.638,-0.84 -0.114,-0.212 -0.159,-0.383 -0.136,-0.521 l 0.03,-0.224 0.104,-0.217 L -15.832,0 h -3.731 v -0.648 c 0,0 4.099,0 4.36,0 0,-0.232 0,-2.021 0,-2.067 -0.004,-0.009 -0.01,-0.023 -0.018,-0.042 -0.209,0.096 -1.493,0.68 -1.87,0.852 0.073,0.022 0.188,0.057 0.188,0.057 l 0.297,0.053 c 0.001,0 0.288,0.015 0.288,0.015 l 0.339,-0.035 c 0.138,-0.026 0.179,-0.053 0.186,-0.058 l 0.312,-0.242 -0.205,0.861 -0.2,0.033 -0.055,0.015 c -0.014,0.003 -0.378,0.042 -0.378,0.042 l -0.305,0.018 c -0.225,0.012 -0.483,-0.019 -0.769,-0.096 -0.242,-0.071 -0.466,-0.175 -0.669,-0.31 -0.419,-0.28 -0.632,-0.619 -0.632,-1.008 0,-0.225 0.055,-0.424 0.164,-0.593 0.108,-0.167 0.285,-0.323 0.543,-0.475 0.448,-0.266 0.948,-0.389 1.484,-0.364 h 0.389 c 0.018,10e-4 0.429,0.093 0.429,0.093 l 0.355,0.123 c 0.006,0.002 0.063,0.039 0.127,0.082 0,-0.337 0,-1.264 0,-1.264 h 0.99 c 0,0 0,4.06 0,4.31 0.191,0 0.893,0 0.987,0 0.007,0 0.011,0 0.011,0 0.109,0 0.984,0 1.188,0 0,-0.25 0,-4.31 0,-4.31 h 0.989 c 0,0 0,4.06 0,4.31 0.158,0 0.704,0 0.982,0 0.099,0 0.165,0 0.165,0 0.395,0 1.384,0 1.572,0 0,-0.204 0,-1.145 0,-1.349 -0.163,0 -0.452,0 -0.452,0 l -0.165,-0.029 -0.077,-0.02 c -0.015,-0.005 -0.205,-0.109 -0.205,-0.109 l -0.046,-0.026 0.005,-0.034 -0.051,-0.147 0.004,-0.03 c 0.013,-0.101 0.071,-0.206 0.173,-0.311 0.009,-0.009 0.722,-0.567 0.722,-0.567 0.242,-0.174 0.448,-0.26 0.627,-0.26 l 0.219,0.021 0.132,0.065 c 0.018,0.011 0.097,0.135 0.097,0.135 l 0.021,0.032 -0.015,0.006 c 0,0 0,0.428 0,0.593 0.233,0 1.956,0 2.189,0 0,-0.236 0,-2.28 0,-2.28 h 0.99 c 0,0 0,4.06 0,4.31 0.112,0 0.401,0 0.642,0 0.205,0 0.377,0 0.377,0 0.345,0 0.823,0 0.961,0 0,-0.25 0,-4.31 0,-4.31 h 0.99 c 0,0 0,4.06 0,4.31 0.222,0 1.32,0 1.32,0 V 0 Z m -13.184,0 h -1.483 l -0.056,0.053 -0.166,0.211 c 10e-4,-0.002 -0.135,0.244 -0.135,0.244 10e-4,-0.003 -0.043,0.181 -0.043,0.181 l 0.011,0.144 c 0.043,0.116 0.111,0.227 0.197,0.315 0.124,0.121 0.321,0.183 0.581,0.183 0.285,0 0.641,-0.161 1.06,-0.478 0.638,-0.489 0.881,-0.733 0.976,-0.853 -0.215,0 -0.784,0 -0.942,0 z m 8.043,-0.648 c 0,-0.204 0,-1.145 0,-1.349 -0.233,0 -1.956,0 -2.189,0 0,0.204 0,1.145 0,1.349 0.233,0 1.956,0 2.189,0 z m -12.497,-1.677 c 0,0 0.004,0.012 0.008,0.021 0.2,-0.094 1.537,-0.728 1.881,-0.89 -0.034,-0.016 -0.07,-0.033 -0.07,-0.033 -10e-4,0 -0.334,-0.117 -0.334,-0.117 -0.003,0 -0.11,-0.027 -0.137,-0.033 -0.03,0 -0.199,0 -0.199,0 -0.15,0 -0.308,0.022 -0.472,0.064 -0.156,0.04 -0.291,0.104 -0.403,0.189 -0.236,0.141 -0.344,0.296 -0.344,0.492 0,0.018 10e-4,0.038 0.003,0.057 0,0 0.008,0.077 0.011,0.102 0.009,0.025 0.056,0.148 0.056,0.148"
           style="fill:#1d4e9e;fill-opacity:1;fill-rule:evenodd;stroke:none"
           id="path3183" />
      </g>
      <g
         id="g3185"
         transform="matrix(0.63863252,0,0,-0.63863252,75.44087,30.331256)">
        <path
           inkscape:connector-curvature="0"
           d="m 0,0 h -15.97 l -0.349,0.23 -0.393,0.271 -0.992,0.553 c -0.275,0.154 -0.6,0.307 -0.966,0.454 -0.882,0.357 -1.681,0.538 -2.375,0.538 -0.31,0 -0.61,-0.035 -0.89,-0.103 -0.413,-0.11 -0.751,-0.288 -1.007,-0.531 -0.242,-0.23 -0.364,-0.486 -0.364,-0.762 0,-0.032 0.001,-0.064 0.004,-0.097 V 0.4 l 0.085,-0.264 c 0,0 0.03,-0.084 0.054,-0.153 -0.292,0 -1.164,0 -1.164,0 v -0.648 c 0,0 0.982,0 1.199,0 0,-0.25 0,-4.293 0,-4.293 h 0.989 c 0,0 0,4.043 0,4.293 0.216,0 1.164,0 1.164,0 v 0.017 c 0.811,0 4.668,0 4.903,0 0,-0.186 0,-0.78 0,-0.966 -0.258,0 -3.608,0 -3.608,0 l -0.171,-0.008 -0.147,-0.031 c -0.273,-0.113 -0.325,-0.277 -0.325,-0.397 v -0.017 l 0.004,-0.016 c 0.024,-0.089 0.088,-0.188 0.195,-0.303 0.139,-0.163 0.294,-0.306 0.456,-0.422 l 0.504,-0.359 c 0.189,-0.104 0.3,-0.145 0.383,-0.145 l 0.196,0.023 0.134,0.077 c 0.008,0.005 0.091,0.146 0.091,0.146 l 0.017,0.145 c 0,0 0,0.475 0,0.658 0.234,0 2.037,0 2.271,0 0,-0.24 0,-2.695 0,-2.695 h 0.99 c 0,0 0,4.06 0,4.31 0.148,0 0.633,0 0.915,0 0.124,0 0.21,0 0.21,0 0.511,0 1.801,0 1.996,0 0,-0.198 0,-0.999 0,-1.195 -0.186,-0.002 -0.636,-0.007 -0.636,-0.007 l -0.154,-0.01 -0.154,-0.011 -0.152,-0.086 0.014,0.001 -0.065,-0.182 c 0,-0.117 0.06,-0.242 0.182,-0.384 0.254,-0.289 0.601,-0.544 1.033,-0.758 0.209,-0.084 0.364,-0.123 0.484,-0.123 l 0.24,0.043 0.02,0.011 c 0.084,0.047 0.144,0.121 0.172,0.214 l 0.006,0.018 c 0,0 0,2.229 0,2.469 0.225,0 1.633,0 1.859,0 0,-0.25 0,-4.31 0,-4.31 h 0.989 c 0,0 0,4.06 0,4.31 0.174,0 0.965,0 1.338,0 0.118,0 0.195,0 0.195,0 0.414,0 1.359,0 1.542,0 0,-0.204 0,-1.145 0,-1.349 -0.163,0 -0.452,0 -0.452,0 l -0.165,-0.029 -0.077,-0.021 c -0.015,-0.004 -0.204,-0.108 -0.204,-0.108 l -0.046,-0.026 0.004,-0.034 -0.051,-0.147 0.004,-0.03 c 0.013,-0.102 0.069,-0.204 0.173,-0.311 0.009,-0.009 0.721,-0.567 0.721,-0.567 0.243,-0.174 0.45,-0.26 0.628,-0.26 l 0.218,0.021 0.133,0.065 c 0.019,0.011 0.098,0.135 0.098,0.135 l 0.02,0.032 -0.015,0.006 c 0,0 0,0.428 0,0.593 0.233,0 1.957,0 2.189,0 0,-0.236 0,-2.28 0,-2.28 h 0.99 c 0,0 0,4.06 0,4.31 0.207,0 1.019,0 1.019,0 V 0 Z m -21.126,0 v -0.017 c -0.309,0 -0.994,0 -1.085,0 -0.009,0.011 -0.02,0.025 -0.02,0.025 l -0.079,0.154 c 0,0 -0.047,0.131 -0.059,0.167 0.001,0.036 0.005,0.161 0.005,0.161 -10e-4,0.012 -0.002,0.025 -0.002,0.037 0,0.104 0.029,0.217 0.086,0.346 0.152,0.234 0.378,0.389 0.679,0.455 0.152,0.048 0.32,0.07 0.513,0.07 0.251,0 0.538,-0.035 0.853,-0.106 0.377,-0.088 0.712,-0.196 0.994,-0.319 l 0.815,-0.365 c 0.003,-0.002 0.314,-0.148 0.314,-0.148 10e-4,0 0.468,-0.279 0.468,-0.279 L -17.358,0 Z M -1.87,-0.648 c 0,-0.204 0,-1.145 0,-1.349 -0.232,0 -1.956,0 -2.189,0 0,0.204 0,1.145 0,1.349 0.233,0 1.957,0 2.189,0"
           style="fill:#1d4e9e;fill-opacity:1;fill-rule:evenodd;stroke:none"
           id="path3187" />
      </g>
    </g>
  </g>
</svg>
